<svg width="24" height="24" viewBox="0 0 24 24" fill="none" xmlns="http://www.w3.org/2000/svg">
<path d="M18.7098 8.2101C18.6169 8.11638 18.5063 8.04198 18.3844 7.99121C18.2625 7.94044 18.1318 7.91431 17.9998 7.91431C17.8678 7.91431 17.7371 7.94044 17.6152 7.99121C17.4934 8.04198 17.3828 8.11638 17.2898 8.2101L12.7098 12.7901C12.6169 12.8838 12.5063 12.9582 12.3844 13.009C12.2625 13.0598 12.1318 13.0859 11.9998 13.0859C11.8678 13.0859 11.7371 13.0598 11.6152 13.009C11.4934 12.9582 11.3828 12.8838 11.2898 12.7901L6.70982 8.2101C6.61685 8.11638 6.50625 8.04198 6.38439 7.99121C6.26253 7.94044 6.13183 7.91431 5.99982 7.91431C5.8678 7.91431 5.7371 7.94044 5.61524 7.99121C5.49338 8.04198 5.38278 8.11638 5.28982 8.2101C5.10356 8.39747 4.99902 8.65092 4.99902 8.9151C4.99902 9.17929 5.10356 9.43274 5.28982 9.6201L9.87982 14.2101C10.4423 14.7719 11.2048 15.0875 11.9998 15.0875C12.7948 15.0875 13.5573 14.7719 14.1198 14.2101L18.7098 9.6201C18.8961 9.43274 19.0006 9.17929 19.0006 8.9151C19.0006 8.65092 18.8961 8.39747 18.7098 8.2101Z" fill="#6F767E"/>
</svg>
