<svg width="80" height="81" viewBox="0 0 80 81" fill="none" xmlns="http://www.w3.org/2000/svg">
<rect x="1.25" y="1.96094" width="77.5" height="77.5" rx="28.75" fill="#FF3636" fill-opacity="0.1"/>
<rect x="1.25" y="1.96094" width="77.5" height="77.5" rx="28.75" stroke="#C23743" stroke-width="2.5"/>
<path fill-rule="evenodd" clip-rule="evenodd" d="M54.7075 24.6021V30.6805C53.2417 31.5848 52.1195 32.7151 51.3408 34.0714C50.5622 35.4278 49.9743 36.8511 49.5774 38.3415C49.1804 39.8318 48.9819 41.4979 48.9819 43.3399H54.7075V56.6021H42.615V48.3634C42.615 43.4068 43.0425 39.6308 43.8976 37.0353C44.7526 34.4398 46.0656 32.0537 47.8368 29.8768C49.6079 27.6999 51.8981 25.9417 54.7075 24.6021ZM36.9352 24.6021V30.6806C35.4695 31.5849 34.3473 32.7152 33.5686 34.0715C32.7899 35.4279 32.2021 36.8512 31.8051 38.3415C31.4081 39.8319 31.2096 41.498 31.2096 43.34H36.9352V56.6021H24.8428V48.3635C24.8428 43.4069 25.2703 39.6309 26.1253 37.0354C26.9803 34.4399 28.301 32.0537 30.0874 29.8769C31.8738 27.7 34.1564 25.9418 36.9352 24.6021Z" fill="#C23743"/>
</svg>
