<svg width="20" height="21" viewBox="0 0 20 21" fill="none" xmlns="http://www.w3.org/2000/svg">
<path d="M18.3952 13.1585C17.1707 13.1585 15.9684 12.967 14.8291 12.5904C14.2708 12.4 13.5845 12.5747 13.2438 12.9247L10.995 14.6223C8.38703 13.2301 6.78057 11.6242 5.40745 9.03581L7.0551 6.84561C7.48318 6.41811 7.63672 5.79363 7.45276 5.20769C7.07464 4.06238 6.88255 2.86066 6.88255 1.63566C6.8826 0.75071 6.16266 0.0307617 5.27776 0.0307617H1.60484C0.719948 0.0307617 0 0.75071 0 1.63561C0 11.7788 8.25198 20.0308 18.3952 20.0308C19.2801 20.0308 20.0001 19.3108 20.0001 18.4259V14.7633C20 13.8784 19.2801 13.1585 18.3952 13.1585Z" fill="#9AA5AB"/>
</svg>
