<svg width="32" height="32" viewBox="0 0 32 32" fill="none" xmlns="http://www.w3.org/2000/svg">
<path d="M12.9327 15.0665C12.3993 14.5332 11.5993 14.5332 11.066 15.0665C10.5327 15.5999 10.5327 16.3999 11.066 16.9332L15.066 20.9332C15.3327 21.1999 15.5993 21.3332 15.9993 21.3332C16.3993 21.3332 16.666 21.1999 16.9327 20.9332L26.266 10.2665C26.666 9.59987 26.666 8.79987 25.9993 8.39987C25.466 7.99987 24.666 7.99987 24.266 8.5332L15.9993 17.9999L12.9327 15.0665Z" fill="#C23743"/>
<path d="M27.9993 14.6665C27.1993 14.6665 26.666 15.1998 26.666 15.9998C26.666 21.8665 21.866 26.6665 15.9993 26.6665C10.1327 26.6665 5.33268 21.8665 5.33268 15.9998C5.33268 13.1998 6.39935 10.5332 8.39935 8.53317C10.3993 6.39984 13.066 5.33317 15.9993 5.33317C16.7993 5.33317 17.7327 5.4665 18.5327 5.59984C19.1993 5.8665 19.9993 5.4665 20.266 4.6665C20.5327 3.8665 19.9993 3.33317 19.3327 3.0665H19.1993C18.1327 2.79984 17.066 2.6665 15.9993 2.6665C8.66602 2.6665 2.66602 8.6665 2.66602 16.1332C2.66602 19.5998 4.13268 23.0665 6.53268 25.4665C9.06602 27.9998 12.3993 29.3332 15.866 29.3332C23.1993 29.3332 29.1993 23.3332 29.1993 15.9998C29.3327 15.1998 28.666 14.6665 27.9993 14.6665Z" fill="#C23743"/>
</svg>
