<svg width="204" height="30" viewBox="0 0 204 30" fill="none" xmlns="http://www.w3.org/2000/svg">
<rect width="29.4545" height="29.4545" rx="5.35537" fill="#C23743"/>
<path fill-rule="evenodd" clip-rule="evenodd" d="M8.12442 4.0166C6.47841 4.0166 5.14404 5.35096 5.14404 6.99698V15.8548C5.14404 21.1475 9.43463 25.4381 14.7273 25.4381C20.0201 25.4381 24.3106 21.1475 24.3106 15.8548V6.99698C24.3106 5.35096 22.9763 4.0166 21.3303 4.0166H8.12442ZM14.6191 9.27802L8.51208 12.3785C8.26154 12.4725 7.89199 12.7543 8.41813 13.1301C8.69485 13.3278 9.10464 13.5587 9.48653 13.7739L9.48654 13.7739C10.0123 14.0702 10.4851 14.3366 10.4851 14.4455C10.4851 14.5958 10.5477 16.5125 10.5791 17.452C10.9236 18.3289 12.2139 20.1015 14.6191 20.1767C17.0243 20.1015 18.3146 18.3289 18.6591 17.452C18.6904 16.5125 18.7531 14.5958 18.7531 14.4455C18.7531 14.3366 19.2259 14.0702 19.7516 13.7739C20.1335 13.5587 20.5433 13.3278 20.82 13.1301C21.3462 12.7543 20.9766 12.4725 20.7261 12.3785L14.6191 9.27802Z" fill="white"/>
<path d="M44.4545 12.3835C44.3551 12.0379 44.2154 11.7325 44.0355 11.4674C43.8555 11.1975 43.6354 10.9702 43.375 10.7855C43.1193 10.5961 42.8257 10.4517 42.4943 10.3523C42.1676 10.2529 41.8054 10.2031 41.4076 10.2031C40.6643 10.2031 40.0108 10.3878 39.4474 10.7571C38.8887 11.1264 38.4531 11.6638 38.1406 12.3693C37.8281 13.0701 37.6718 13.9271 37.6718 14.9404C37.6718 15.9536 37.8257 16.8154 38.1335 17.5256C38.4412 18.2358 38.8768 18.778 39.4403 19.152C40.0037 19.5213 40.669 19.706 41.436 19.706C42.1321 19.706 42.7263 19.5829 43.2187 19.3367C43.7159 19.0857 44.0947 18.733 44.3551 18.2784C44.6202 17.8239 44.7528 17.2865 44.7528 16.6662L45.3778 16.7585H41.6278V14.4432H47.7144V16.2756C47.7144 17.554 47.4446 18.6525 46.9048 19.571C46.365 20.4849 45.6216 21.1904 44.6747 21.6875C43.7277 22.1799 42.6434 22.4262 41.4218 22.4262C40.0582 22.4262 38.8603 22.1255 37.8281 21.5242C36.7959 20.9181 35.991 20.0587 35.4133 18.946C34.8404 17.8286 34.5539 16.5029 34.5539 14.9688C34.5539 13.7898 34.7244 12.7387 35.0653 11.8154C35.4109 10.8873 35.8939 10.1013 36.5142 9.45741C37.1344 8.81347 37.8565 8.32341 38.6804 7.98724C39.5042 7.65106 40.3967 7.48298 41.3579 7.48298C42.1818 7.48298 42.9488 7.60371 43.659 7.84519C44.3693 8.08193 44.999 8.41811 45.5483 8.85371C46.1022 9.28932 46.5544 9.80779 46.9048 10.4091C47.2552 11.0057 47.4801 11.6638 47.5795 12.3835H44.4545ZM49.2245 22.2273V7.68184H52.2997V14.0952H52.4915L57.7259 7.68184H61.412L56.0142 14.1946L61.4759 22.2273H57.7969L53.8125 16.2472L52.2997 18.0938V22.2273H49.2245ZM62.2135 22.2273V7.68184H67.9522C69.0554 7.68184 69.9952 7.89254 70.7718 8.31394C71.5483 8.73061 72.1401 9.31063 72.5473 10.054C72.9593 10.7926 73.1652 11.6449 73.1652 12.6108C73.1652 13.5767 72.9569 14.429 72.5402 15.1676C72.1236 15.9063 71.5199 16.4816 70.7291 16.8935C69.9432 17.3054 68.9915 17.5114 67.874 17.5114H64.2164V15.0469H67.3769C67.9687 15.0469 68.4564 14.9451 68.8399 14.7415C69.2282 14.5332 69.517 14.2467 69.7064 13.8821C69.9005 13.5128 69.9976 13.089 69.9976 12.6108C69.9976 12.1279 69.9005 11.7065 69.7064 11.3466C69.517 10.982 69.2282 10.7003 68.8399 10.5014C68.4517 10.2978 67.9593 10.196 67.3627 10.196H65.2888V22.2273H62.2135ZM74.3627 22.2273V7.68184H80.1014C81.1999 7.68184 82.1374 7.87834 82.9139 8.27133C83.6951 8.65959 84.2893 9.2112 84.6965 9.92616C85.1085 10.6364 85.3144 11.4721 85.3144 12.4333C85.3144 13.3992 85.1061 14.2301 84.6894 14.9262C84.2728 15.6174 83.6691 16.1477 82.8784 16.5171C82.0924 16.8864 81.1407 17.071 80.0232 17.071H76.1809V14.5995H79.5261C80.1132 14.5995 80.6009 14.519 80.9892 14.358C81.3774 14.197 81.6662 13.9555 81.8556 13.6335C82.0498 13.3116 82.1468 12.9115 82.1468 12.4333C82.1468 11.9503 82.0498 11.5431 81.8556 11.2117C81.6662 10.8802 81.375 10.6293 80.9821 10.4588C80.5938 10.2836 80.1037 10.196 79.5119 10.196H77.438V22.2273H74.3627ZM82.2179 15.608L85.8329 22.2273H82.438L78.9011 15.608H82.2179ZM100.054 14.9546C100.054 16.5407 99.7536 17.8902 99.1522 19.0029C98.5556 20.1156 97.7412 20.9655 96.709 21.5526C95.6816 22.135 94.5263 22.4262 93.2431 22.4262C91.9505 22.4262 90.7905 22.1326 89.763 21.5455C88.7356 20.9584 87.9235 20.1085 87.3269 18.9958C86.7304 17.8831 86.4321 16.536 86.4321 14.9546C86.4321 13.3684 86.7304 12.019 87.3269 10.9063C87.9235 9.79358 88.7356 8.94604 89.763 8.36366C90.7905 7.77654 91.9505 7.48298 93.2431 7.48298C94.5263 7.48298 95.6816 7.77654 96.709 8.36366C97.7412 8.94604 98.5556 9.79358 99.1522 10.9063C99.7536 12.019 100.054 13.3684 100.054 14.9546ZM96.9363 14.9546C96.9363 13.9271 96.7824 13.0606 96.4747 12.3551C96.1716 11.6496 95.7431 11.1146 95.1892 10.75C94.6352 10.3854 93.9865 10.2031 93.2431 10.2031C92.4998 10.2031 91.8511 10.3854 91.2971 10.75C90.7431 11.1146 90.3123 11.6496 90.0045 12.3551C89.7015 13.0606 89.55 13.9271 89.55 14.9546C89.55 15.982 89.7015 16.8485 90.0045 17.554C90.3123 18.2595 90.7431 18.7945 91.2971 19.1591C91.8511 19.5237 92.4998 19.706 93.2431 19.706C93.9865 19.706 94.6352 19.5237 95.1892 19.1591C95.7431 18.7945 96.1716 18.2595 96.4747 17.554C96.7824 16.8485 96.9363 15.982 96.9363 14.9546ZM107.868 22.2273H104.573L109.594 7.68184H113.557L118.571 22.2273H115.276L111.632 11.0057H111.519L107.868 22.2273ZM107.662 16.51H115.446V18.9105H107.662V16.51ZM131.672 12.7742H128.562C128.505 12.3717 128.389 12.0142 128.214 11.7017C128.038 11.3845 127.813 11.1146 127.539 10.8921C127.264 10.6695 126.947 10.4991 126.587 10.3807C126.232 10.2623 125.846 10.2031 125.429 10.2031C124.677 10.2031 124.021 10.3902 123.462 10.7642C122.903 11.1335 122.47 11.6733 122.162 12.3835C121.855 13.089 121.701 13.946 121.701 14.9546C121.701 15.9915 121.855 16.8627 122.162 17.5682C122.475 18.2737 122.91 18.8064 123.469 19.1662C124.028 19.5261 124.674 19.706 125.408 19.706C125.82 19.706 126.201 19.6515 126.552 19.5426C126.907 19.4337 127.222 19.2751 127.496 19.0668C127.771 18.8537 127.998 18.5957 128.178 18.2926C128.363 17.9896 128.491 17.644 128.562 17.2557L131.672 17.2699C131.592 17.9375 131.391 18.5815 131.069 19.2017C130.751 19.8173 130.323 20.3689 129.783 20.8566C129.248 21.3395 128.609 21.723 127.866 22.0071C127.127 22.2865 126.291 22.4262 125.358 22.4262C124.061 22.4262 122.901 22.1326 121.878 21.5455C120.86 20.9584 120.055 20.1085 119.464 18.9958C118.876 17.8831 118.583 16.536 118.583 14.9546C118.583 13.3684 118.881 12.019 119.478 10.9063C120.074 9.79358 120.884 8.94604 121.907 8.36366C122.929 7.77654 124.08 7.48298 125.358 7.48298C126.201 7.48298 126.982 7.60135 127.702 7.83809C128.427 8.07483 129.068 8.42048 129.627 8.87502C130.186 9.32483 130.64 9.87644 130.991 10.5299C131.346 11.1833 131.573 11.9314 131.672 12.7742ZM135.311 22.2273H132.016L137.037 7.68184H141L146.014 22.2273H142.719L139.075 11.0057H138.962L135.311 22.2273ZM135.105 16.51H142.889V18.9105H135.105V16.51ZM152.121 22.2273H146.965V7.68184H152.164C153.627 7.68184 154.886 7.97303 155.942 8.55542C156.998 9.13307 157.81 9.96404 158.378 11.0483C158.951 12.1326 159.238 13.4299 159.238 14.9404C159.238 16.4555 158.951 17.7576 158.378 18.8466C157.81 19.9356 156.993 20.7713 155.928 21.3537C154.868 21.9361 153.599 22.2273 152.121 22.2273ZM150.04 19.5924H151.993C152.903 19.5924 153.667 19.4314 154.288 19.1094C154.913 18.7827 155.381 18.2784 155.694 17.5966C156.011 16.9101 156.17 16.0246 156.17 14.9404C156.17 13.8656 156.011 12.9872 155.694 12.3054C155.381 11.6236 154.915 11.1217 154.295 10.7997C153.674 10.4778 152.91 10.3168 152.001 10.3168H150.04V19.5924ZM160.716 22.2273V7.68184H170.517V10.2174H163.791V13.6833H170.013V16.2188H163.791V19.6918H170.545V22.2273H160.716ZM172.162 7.68184H175.955L179.96 17.4546H180.131L184.136 7.68184H187.929V22.2273H184.946V12.76H184.825L181.061 22.1563H179.03L175.266 12.7245H175.145V22.2273H172.162V7.68184ZM188.81 7.68184H192.255L195.572 13.946H195.714L199.031 7.68184H202.475L197.17 17.0852V22.2273H194.116V17.0852L188.81 7.68184Z" fill="#000929"/>
</svg>
