<svg width="16" height="10" viewBox="0 0 16 10" fill="none" xmlns="http://www.w3.org/2000/svg">
<path d="M15.6677 1.23963C15.5615 1.13252 15.4351 1.04751 15.2958 0.989495C15.1566 0.93148 15.0072 0.901611 14.8564 0.901611C14.7055 0.901611 14.5562 0.93148 14.4169 0.989495C14.2776 1.04751 14.1513 1.13252 14.045 1.23963L8.81134 6.47332C8.7051 6.58043 8.57872 6.66544 8.43947 6.72345C8.30021 6.78147 8.15085 6.81134 8 6.81134C7.84915 6.81134 7.69979 6.78147 7.56053 6.72345C7.42128 6.66544 7.29489 6.58043 7.18866 6.47332L1.95497 1.23963C1.84874 1.13252 1.72235 1.04751 1.5831 0.989495C1.44385 0.93148 1.29449 0.901611 1.14363 0.901611C0.99278 0.901611 0.843419 0.93148 0.704167 0.989495C0.564915 1.04751 0.438528 1.13252 0.332297 1.23963C0.119462 1.45373 0 1.74336 0 2.04525C0 2.34714 0.119462 2.63677 0.332297 2.85087L5.57742 8.09599C6.2202 8.73798 7.09153 9.09858 8 9.09858C8.90847 9.09858 9.7798 8.73798 10.4226 8.09599L15.6677 2.85087C15.8805 2.63677 16 2.34714 16 2.04525C16 1.74336 15.8805 1.45373 15.6677 1.23963Z" fill="#7B7B7B"/>
</svg>
