<svg width="64" height="64" viewBox="0 0 64 64" fill="none" xmlns="http://www.w3.org/2000/svg">
<rect x="1" y="1" width="62" height="62" rx="23" fill="#FF3636" fill-opacity="0.1"/>
<rect x="1" y="1" width="62" height="62" rx="23" stroke="#C23743" stroke-width="2"/>
<path d="M42 17.3333H22C18.692 17.3333 16 20.0253 16 23.3333V40.6666C16 43.9746 18.692 46.6666 22 46.6666H42C45.308 46.6666 48 43.9746 48 40.6666V23.3333C48 20.0253 45.308 17.3333 42 17.3333ZM22 18.6666H42C44.5733 18.6666 46.6667 20.7599 46.6667 23.3333V26.6666H17.3333V23.3333C17.3333 20.7599 19.4267 18.6666 22 18.6666ZM42 45.3333H22C19.4267 45.3333 17.3333 43.2399 17.3333 40.6666V27.9999H46.6667V40.6666C46.6667 43.2399 44.5733 45.3333 42 45.3333ZM20 22.6666C20 21.9306 20.5973 21.3333 21.3333 21.3333C22.0693 21.3333 22.6667 21.9306 22.6667 22.6666C22.6667 23.4026 22.0693 23.9999 21.3333 23.9999C20.5973 23.9999 20 23.4026 20 22.6666ZM24 22.6666C24 21.9306 24.5973 21.3333 25.3333 21.3333C26.0693 21.3333 26.6667 21.9306 26.6667 22.6666C26.6667 23.4026 26.0693 23.9999 25.3333 23.9999C24.5973 23.9999 24 23.4026 24 22.6666ZM42.6667 33.9999C42.6667 34.3679 42.368 34.6666 42 34.6666H32.6667C32.2987 34.6666 32 34.3679 32 33.9999C32 33.6319 32.2987 33.3333 32.6667 33.3333H42C42.368 33.3333 42.6667 33.6319 42.6667 33.9999ZM42.6667 40.6666C42.6667 41.0346 42.368 41.3333 42 41.3333H32.6667C32.2987 41.3333 32 41.0346 32 40.6666C32 40.2986 32.2987 39.9999 32.6667 39.9999H42C42.368 39.9999 42.6667 40.2986 42.6667 40.6666ZM30.4733 37.1666C30.732 37.4279 30.7293 37.8506 30.468 38.1093L26.5493 41.9813C26.0893 42.4346 25.4867 42.6626 24.8827 42.6626C24.2787 42.6626 23.68 42.4373 23.2213 41.9879L21.4213 40.2226C21.16 39.9653 21.1547 39.5426 21.4133 39.2799C21.6693 39.0186 22.092 39.0133 22.356 39.2719L24.1547 41.0359C24.556 41.4293 25.2107 41.4293 25.612 41.0333L29.5307 37.1613C29.7933 36.9026 30.216 36.9066 30.4733 37.1666ZM30.4733 30.4999C30.732 30.7626 30.7293 31.1839 30.468 31.4426L26.5493 35.3146C26.0893 35.7679 25.4867 35.9959 24.8827 35.9959C24.2787 35.9959 23.68 35.7706 23.2213 35.3213L21.4213 33.5559C21.16 33.2986 21.156 32.8759 21.4133 32.6133C21.6693 32.3506 22.092 32.3479 22.356 32.6039L24.1547 34.3693C24.556 34.7626 25.2107 34.7626 25.612 34.3666L29.5307 30.4946C29.7933 30.2346 30.216 30.2386 30.4733 30.4999Z" fill="#C23743"/>
</svg>
