<svg width="16" height="17" viewBox="0 0 16 17" fill="none" xmlns="http://www.w3.org/2000/svg">
<g clip-path="url(#clip0_1_2158)">
<path d="M15.3588 6.42264C13.7398 3.92479 10.9758 2.40561 7.99931 2.37769C5.02283 2.40561 2.25883 3.92479 0.639877 6.42264C-0.213292 7.67472 -0.213292 9.32137 0.639877 10.5735C2.25791 13.0729 5.02208 14.5936 7.99934 14.6225C10.9758 14.5945 13.7398 13.0753 15.3588 10.5775C16.2138 9.32448 16.2138 7.67563 15.3588 6.42264ZM13.7022 9.43826C12.4662 11.3988 10.3169 12.5949 7.99931 12.612C5.68177 12.5949 3.53249 11.3988 2.29643 9.43826C1.91109 8.87214 1.91109 8.12797 2.29643 7.56188C3.53245 5.60138 5.68174 4.40528 7.99931 4.3881C10.3168 4.40525 12.4661 5.60138 13.7022 7.56188C14.0875 8.12797 14.0875 8.87214 13.7022 9.43826Z" fill="#C23743"/>
<path d="M7.9989 11.1807C9.47932 11.1807 10.6794 9.98054 10.6794 8.50012C10.6794 7.0197 9.47932 5.81958 7.9989 5.81958C6.51848 5.81958 5.31836 7.0197 5.31836 8.50012C5.31836 9.98054 6.51848 11.1807 7.9989 11.1807Z" fill="#C23743"/>
</g>
<defs>
<clipPath id="clip0_1_2158">
<rect width="16" height="16" fill="white" transform="translate(0 0.5)"/>
</clipPath>
</defs>
</svg>
