<svg width="20" height="20" viewBox="0 0 20 20" fill="none" xmlns="http://www.w3.org/2000/svg">
<path d="M8.13387 11.9724C7.6547 11.4941 7.36304 10.8441 7.36304 10.1149C7.36304 8.65406 8.5397 7.47656 9.9997 7.47656C10.7222 7.47656 11.3872 7.76906 11.858 8.2474" stroke="#212121" stroke-width="1.5" stroke-linecap="round" stroke-linejoin="round"/>
<path d="M12.5874 10.5825C12.3941 11.6575 11.5474 12.5059 10.4733 12.7009" stroke="#212121" stroke-width="1.5" stroke-linecap="round" stroke-linejoin="round"/>
<path d="M5.54555 14.5604C4.22305 13.522 3.10305 12.0054 2.29138 10.1145C3.11138 8.21535 4.23888 6.69035 5.56972 5.64369C6.89222 4.59702 8.41805 4.02869 9.99972 4.02869C11.5905 4.02869 13.1155 4.60535 14.4464 5.65952" stroke="#212121" stroke-width="1.5" stroke-linecap="round" stroke-linejoin="round"/>
<path d="M16.2064 7.49243C16.7798 8.2541 17.2839 9.13326 17.7081 10.1141C16.0689 13.9116 13.1723 16.1991 9.99977 16.1991C9.2806 16.1991 8.57144 16.0824 7.88977 15.8549" stroke="#212121" stroke-width="1.5" stroke-linecap="round" stroke-linejoin="round"/>
<path d="M16.5725 3.54138L3.42749 16.6864" stroke="#212121" stroke-width="1.5" stroke-linecap="round" stroke-linejoin="round"/>
</svg>
