<svg width="48" height="48" viewBox="0 0 48 48" fill="none" xmlns="http://www.w3.org/2000/svg">
<path d="M0.5 24C0.5 11.0213 11.0213 0.5 24 0.5C36.9787 0.5 47.5 11.0213 47.5 24C47.5 36.9787 36.9787 47.5 24 47.5C11.0213 47.5 0.5 36.9787 0.5 24Z" stroke="white" stroke-opacity="0.5"/>
<path d="M23.9967 20.1429C23.2338 20.1429 22.488 20.3691 21.8537 20.793C21.2194 21.2168 20.7251 21.8192 20.4331 22.524C20.1412 23.2288 20.0648 24.0043 20.2136 24.7526C20.3625 25.5008 20.7298 26.1881 21.2692 26.7275C21.8087 27.2669 22.4959 27.6343 23.2442 27.7831C23.9924 27.9319 24.7679 27.8555 25.4727 27.5636C26.1775 27.2717 26.7799 26.7773 27.2037 26.143C27.6276 25.5087 27.8538 24.7629 27.8538 24.0001C27.8538 22.9771 27.4474 21.996 26.7241 21.2727C26.0007 20.5493 25.0196 20.1429 23.9967 20.1429ZM23.9967 26.5715C23.4881 26.5715 22.9909 26.4207 22.568 26.1381C22.1452 25.8556 21.8156 25.454 21.621 24.9841C21.4263 24.5142 21.3754 23.9972 21.4746 23.4984C21.5739 22.9996 21.8188 22.5414 22.1784 22.1818C22.538 21.8222 22.9962 21.5773 23.495 21.4781C23.9938 21.3788 24.5108 21.4298 24.9807 21.6244C25.4506 21.819 25.8522 22.1486 26.1347 22.5715C26.4173 22.9943 26.5681 23.4915 26.5681 24.0001C26.566 24.6814 26.2944 25.3342 25.8126 25.816C25.3308 26.2978 24.678 26.5694 23.9967 26.5715ZM27.5324 15.9644H20.4609C19.2675 15.9644 18.1229 16.4385 17.279 17.2824C16.435 18.1263 15.9609 19.2709 15.9609 20.4644V27.5358C15.9609 28.7293 16.435 29.8739 17.279 30.7178C18.1229 31.5617 19.2675 32.0358 20.4609 32.0358H27.5324C28.7258 32.0358 29.8704 31.5617 30.7143 30.7178C31.5583 29.8739 32.0324 28.7293 32.0324 27.5358V20.4644C32.0324 19.2709 31.5583 18.1263 30.7143 17.2824C29.8704 16.4385 28.7258 15.9644 27.5324 15.9644ZM30.7467 27.5358C30.7467 27.9579 30.6635 28.3759 30.502 28.7658C30.3404 29.1558 30.1037 29.5102 29.8052 29.8086C29.5067 30.1071 29.1524 30.3439 28.7624 30.5054C28.3724 30.6669 27.9545 30.7501 27.5324 30.7501H20.4609C20.0388 30.7501 19.6209 30.6669 19.2309 30.5054C18.8409 30.3439 18.4866 30.1071 18.1881 29.8086C17.8896 29.5102 17.6529 29.1558 17.4913 28.7658C17.3298 28.3759 17.2467 27.9579 17.2467 27.5358V20.4644C17.2467 19.6119 17.5853 18.7943 18.1881 18.1915C18.7909 17.5887 19.6085 17.2501 20.4609 17.2501H27.5324C27.9545 17.2501 28.3724 17.3332 28.7624 17.4947C29.1524 17.6563 29.5067 17.893 29.8052 18.1915C30.1037 18.49 30.3404 18.8443 30.502 19.2343C30.6635 19.6243 30.7467 20.0422 30.7467 20.4644V27.5358ZM29.1395 19.8215C29.1395 20.0122 29.083 20.1987 28.977 20.3572C28.871 20.5158 28.7204 20.6394 28.5442 20.7124C28.368 20.7854 28.1742 20.8045 27.9871 20.7673C27.8 20.73 27.6282 20.6382 27.4934 20.5034C27.3585 20.3685 27.2667 20.1967 27.2295 20.0096C27.1923 19.8226 27.2114 19.6287 27.2843 19.4525C27.3573 19.2763 27.4809 19.1257 27.6395 19.0197C27.7981 18.9138 27.9845 18.8572 28.1752 18.8572C28.431 18.8572 28.6762 18.9588 28.8571 19.1396C29.0379 19.3205 29.1395 19.5658 29.1395 19.8215Z" fill="white"/>
</svg>
