<svg width="170" height="171" viewBox="0 0 170 171" fill="none" xmlns="http://www.w3.org/2000/svg">
<g filter="url(#filter0_d_100_184)">
<path d="M85 48.5308C71.469 48.5308 60.5 59.4998 60.5 73.0308C60.5 86.5617 71.469 97.5308 85 97.5308C98.531 97.5308 109.5 86.5617 109.5 73.0308C109.5 59.4998 98.531 48.5308 85 48.5308Z" stroke="white" stroke-opacity="0.5" shape-rendering="crispEdges"/>
<path d="M84.9967 69.1737C84.2338 69.1737 83.488 69.3999 82.8537 69.8237C82.2194 70.2476 81.7251 70.85 81.4331 71.5548C81.1412 72.2596 81.0648 73.0351 81.2136 73.7833C81.3625 74.5315 81.7298 75.2188 82.2692 75.7582C82.8087 76.2977 83.4959 76.665 84.2442 76.8139C84.9924 76.9627 85.7679 76.8863 86.4727 76.5944C87.1775 76.3024 87.7799 75.8081 88.2037 75.1737C88.6276 74.5394 88.8538 73.7937 88.8538 73.0308C88.8538 72.0079 88.4474 71.0268 87.7241 70.3034C87.0007 69.5801 86.0196 69.1737 84.9967 69.1737ZM84.9967 75.6023C84.4881 75.6023 83.9909 75.4514 83.568 75.1689C83.1452 74.8863 82.8156 74.4847 82.621 74.0149C82.4263 73.545 82.3754 73.028 82.4746 72.5292C82.5739 72.0304 82.8188 71.5722 83.1784 71.2126C83.538 70.8529 83.9962 70.608 84.495 70.5088C84.9938 70.4096 85.5108 70.4605 85.9807 70.6551C86.4506 70.8498 86.8522 71.1794 87.1347 71.6022C87.4173 72.0251 87.5681 72.5223 87.5681 73.0308C87.566 73.7122 87.2944 74.365 86.8126 74.8468C86.3308 75.3285 85.678 75.6001 84.9967 75.6023ZM88.5324 64.9951H81.4609C80.2675 64.9951 79.1229 65.4692 78.279 66.3131C77.435 67.1571 76.9609 68.3016 76.9609 69.4951V76.5665C76.9609 77.76 77.435 78.9046 78.279 79.7485C79.1229 80.5924 80.2675 81.0665 81.4609 81.0665H88.5324C89.7258 81.0665 90.8704 80.5924 91.7143 79.7485C92.5583 78.9046 93.0324 77.76 93.0324 76.5665V69.4951C93.0324 68.3016 92.5583 67.1571 91.7143 66.3131C90.8704 65.4692 89.7258 64.9951 88.5324 64.9951ZM91.7467 76.5665C91.7467 76.9887 91.6635 77.4066 91.502 77.7966C91.3404 78.1866 91.1037 78.5409 90.8052 78.8394C90.5067 79.1379 90.1524 79.3746 89.7624 79.5362C89.3724 79.6977 88.9545 79.7808 88.5324 79.7808H81.4609C81.0388 79.7808 80.6209 79.6977 80.2309 79.5362C79.8409 79.3746 79.4866 79.1379 79.1881 78.8394C78.8896 78.5409 78.6529 78.1866 78.4913 77.7966C78.3298 77.4066 78.2467 76.9887 78.2467 76.5665V69.4951C78.2467 68.6426 78.5853 67.8251 79.1881 67.2223C79.7909 66.6195 80.6085 66.2808 81.4609 66.2808H88.5324C88.9545 66.2808 89.3724 66.364 89.7624 66.5255C90.1524 66.687 90.5067 66.9238 90.8052 67.2223C91.1037 67.5207 91.3404 67.8751 91.502 68.2651C91.6635 68.655 91.7467 69.073 91.7467 69.4951V76.5665ZM90.1395 68.8523C90.1395 69.043 90.083 69.2294 89.977 69.388C89.871 69.5466 89.7204 69.6702 89.5442 69.7431C89.368 69.8161 89.1742 69.8352 88.9871 69.798C88.8 69.7608 88.6282 69.669 88.4934 69.5341C88.3585 69.3993 88.2667 69.2274 88.2295 69.0404C88.1923 68.8533 88.2114 68.6594 88.2843 68.4832C88.3573 68.307 88.4809 68.1564 88.6395 68.0505C88.7981 67.9445 88.9845 67.888 89.1752 67.888C89.431 67.888 89.6762 67.9896 89.8571 68.1704C90.0379 68.3512 90.1395 68.5965 90.1395 68.8523Z" fill="white"/>
</g>
<defs>
<filter id="filter0_d_100_184" x="0" y="0.0307617" width="170" height="170" filterUnits="userSpaceOnUse" color-interpolation-filters="sRGB">
<feFlood flood-opacity="0" result="BackgroundImageFix"/>
<feColorMatrix in="SourceAlpha" type="matrix" values="0 0 0 0 0 0 0 0 0 0 0 0 0 0 0 0 0 0 127 0" result="hardAlpha"/>
<feOffset dy="12"/>
<feGaussianBlur stdDeviation="30"/>
<feComposite in2="hardAlpha" operator="out"/>
<feColorMatrix type="matrix" values="0 0 0 0 0.69351 0 0 0 0 0.299913 0 0 0 0 1 0 0 0 0.1 0"/>
<feBlend mode="normal" in2="BackgroundImageFix" result="effect1_dropShadow_100_184"/>
<feBlend mode="normal" in="SourceGraphic" in2="effect1_dropShadow_100_184" result="shape"/>
</filter>
</defs>
</svg>
