<svg width="541" height="41" viewBox="0 0 541 41" fill="none" xmlns="http://www.w3.org/2000/svg">
<line x1="21" y1="19.5" x2="524" y2="19.5" stroke="#FFD0B6" stroke-width="3"/>
<rect x="2" y="2" width="37" height="37" rx="18.5" fill="#FFD0B6"/>
<rect x="2" y="2" width="37" height="37" rx="18.5" stroke="#FFBE9A" stroke-width="4"/>
<path d="M20.51 27V16.407L18.08 17.892V15.498L20.51 14.04H22.724V27H20.51Z" fill="#C23743"/>
<rect x="252" y="2" width="37" height="37" rx="18.5" fill="#FFD0B6"/>
<rect x="252" y="2" width="37" height="37" rx="18.5" stroke="#FFBE9A" stroke-width="4"/>
<path d="M265.9 26.982V25.092L271.444 20.151C271.876 19.767 272.176 19.404 272.344 19.062C272.512 18.72 272.596 18.39 272.596 18.072C272.596 17.64 272.503 17.256 272.317 16.92C272.131 16.578 271.873 16.308 271.543 16.11C271.219 15.912 270.844 15.813 270.418 15.813C269.968 15.813 269.569 15.918 269.221 16.128C268.879 16.332 268.612 16.605 268.42 16.947C268.228 17.289 268.138 17.658 268.15 18.054H265.918C265.918 17.19 266.11 16.437 266.494 15.795C266.884 15.153 267.418 14.655 268.096 14.301C268.78 13.947 269.569 13.77 270.463 13.77C271.291 13.77 272.035 13.956 272.695 14.328C273.355 14.694 273.874 15.204 274.252 15.858C274.63 16.506 274.819 17.253 274.819 18.099C274.819 18.717 274.735 19.236 274.567 19.656C274.399 20.076 274.147 20.463 273.811 20.817C273.481 21.171 273.07 21.564 272.578 21.996L268.645 25.479L268.447 24.939H274.819V26.982H265.9Z" fill="#C23743"/>
<rect x="502" y="2" width="37" height="37" rx="18.5" fill="#FFD0B6"/>
<rect x="502" y="2" width="37" height="37" rx="18.5" stroke="#FFBE9A" stroke-width="4"/>
<path d="M519.968 27.243C519.32 27.243 518.708 27.117 518.132 26.865C517.556 26.613 517.055 26.256 516.629 25.794C516.209 25.332 515.906 24.786 515.72 24.156L517.817 23.589C517.967 24.105 518.24 24.504 518.636 24.786C519.038 25.062 519.479 25.197 519.959 25.191C520.385 25.191 520.766 25.092 521.102 24.894C521.438 24.696 521.702 24.429 521.894 24.093C522.086 23.751 522.182 23.37 522.182 22.95C522.182 22.308 521.975 21.771 521.561 21.339C521.147 20.907 520.613 20.691 519.959 20.691C519.761 20.691 519.566 20.718 519.374 20.772C519.188 20.826 519.008 20.901 518.834 20.997L517.844 19.287L522.2 15.561L522.389 16.083H516.224V14.04H524.171V16.092L520.67 19.458L520.652 18.819C521.438 18.873 522.107 19.092 522.659 19.476C523.217 19.86 523.643 20.355 523.937 20.961C524.237 21.567 524.387 22.23 524.387 22.95C524.387 23.766 524.186 24.498 523.784 25.146C523.388 25.794 522.854 26.307 522.182 26.685C521.516 27.057 520.778 27.243 519.968 27.243Z" fill="#C23743"/>
</svg>
