<svg width="44" height="45" viewBox="0 0 44 45" fill="none" xmlns="http://www.w3.org/2000/svg">
<path d="M22 1.33594C10.1949 1.33594 0.625 10.9059 0.625 22.7109C0.625 34.516 10.1949 44.0859 22 44.0859C33.8051 44.0859 43.375 34.516 43.375 22.7109C43.375 10.9059 33.8051 1.33594 22 1.33594Z" fill="white" fill-opacity="0.2"/>
<path d="M22 1.33594C10.1949 1.33594 0.625 10.9059 0.625 22.7109C0.625 34.516 10.1949 44.0859 22 44.0859C33.8051 44.0859 43.375 34.516 43.375 22.7109C43.375 10.9059 33.8051 1.33594 22 1.33594Z" stroke="#C23743" stroke-width="0.75"/>
<path d="M23.5 18.9609L20.5 22.7109L23.5 26.4609" stroke="#C23743" stroke-width="1.125" stroke-linecap="round" stroke-linejoin="round"/>
</svg>
