<svg width="44" height="45" viewBox="0 0 44 45" fill="none" xmlns="http://www.w3.org/2000/svg">
<path d="M22 1.33594C33.8051 1.33594 43.375 10.9059 43.375 22.7109C43.375 34.516 33.8051 44.0859 22 44.0859C10.1949 44.0859 0.625 34.516 0.625 22.7109C0.625 10.9059 10.1949 1.33594 22 1.33594Z" fill="white" fill-opacity="0.2"/>
<path d="M22 1.33594C33.8051 1.33594 43.375 10.9059 43.375 22.7109C43.375 34.516 33.8051 44.0859 22 44.0859C10.1949 44.0859 0.625 34.516 0.625 22.7109C0.625 10.9059 10.1949 1.33594 22 1.33594Z" stroke="#C23743" stroke-width="0.75"/>
<path d="M20.5 18.961L23.5 22.711L20.5 26.461" stroke="#C23743" stroke-width="1.125" stroke-linecap="round" stroke-linejoin="round"/>
</svg>
