<svg width="20" height="21" viewBox="0 0 20 21" fill="none" xmlns="http://www.w3.org/2000/svg">
<path d="M13.92 6.1C12.823 6.1 11.9425 6.61332 11.2737 7.24986C10.7041 7.79196 10.2815 8.4292 9.99994 8.93405C9.71818 8.42923 9.29559 7.79197 8.72608 7.24987C8.05735 6.61332 7.17705 6.1 6.08 6.1C4.01694 6.1 2.35 7.85565 2.35 10C2.35 12.1443 4.0163 13.9 6.08 13.9C7.17705 13.9 8.0575 13.3867 8.7263 12.7501C9.29588 12.208 9.71847 11.5708 10.0001 11.066C10.2818 11.5708 10.7044 12.208 11.2739 12.7501C11.9427 13.3867 12.8229 13.9 13.92 13.9C15.9831 13.9 17.65 12.1444 17.65 10C17.65 7.85567 15.9837 6.1 13.92 6.1ZM6.07938 12.975C4.54124 12.975 3.27437 11.6483 3.27437 10C3.27437 8.3517 4.54064 7.025 6.07938 7.025C7.07076 7.025 7.86666 7.62492 8.4554 8.32086C9.00469 8.97017 9.35572 9.68261 9.49737 9.99993C9.35542 10.3173 9.00424 11.0298 8.45494 11.6791C7.86617 12.3751 7.07044 12.975 6.07938 12.975ZM13.92 12.975C12.9286 12.975 12.1327 12.3751 11.544 11.6791C10.9947 11.0298 10.6437 10.3174 10.502 10.0001C10.644 9.68266 10.9951 8.97019 11.5444 8.32086C12.1332 7.6249 12.9289 7.025 13.92 7.025C15.4581 7.025 16.725 8.35172 16.725 10C16.725 11.6483 15.4587 12.975 13.92 12.975Z" fill="black" stroke="black" stroke-width="0.3"/>
</svg>
