<svg width="20" height="21" viewBox="0 0 20 21" fill="none" xmlns="http://www.w3.org/2000/svg">
<path d="M10 2.5C5.86437 2.5 2.5 5.86437 2.5 10C2.5 14.1356 5.86437 17.5 10 17.5C14.1356 17.5 17.5 14.1356 17.5 10C17.5 5.86437 14.1356 2.5 10 2.5ZM10 15.625C6.89875 15.625 4.375 13.1019 4.375 10C4.375 6.89813 6.89875 4.375 10 4.375C13.1012 4.375 15.625 6.89875 15.625 10C15.625 13.1012 13.1012 15.625 10 15.625ZM12.5 10C12.5 11.3806 11.3806 12.5 10 12.5C8.61937 12.5 7.5 11.3806 7.5 10C7.5 8.61937 8.61937 7.5 10 7.5C11.3806 7.5 12.5 8.61937 12.5 10Z" fill="black"/>
</svg>
