<svg width="20" height="21" viewBox="0 0 20 21" fill="none" xmlns="http://www.w3.org/2000/svg">
<path d="M16.665 6.4517C16.4383 6.32937 16.1823 6.27176 15.9251 6.28518C15.6678 6.2986 15.4192 6.38254 15.2065 6.5278L12.5 8.3441V6.8999C12.4995 6.50222 12.3414 6.12095 12.0602 5.83974C11.779 5.55853 11.3977 5.40035 11 5.3999H4C3.60231 5.40035 3.22104 5.55853 2.93984 5.83974C2.65863 6.12095 2.50045 6.50222 2.5 6.8999V13.8999C2.50045 14.2976 2.65863 14.6789 2.93984 14.9601C3.22104 15.2413 3.60231 15.3995 4 15.3999H11C11.3977 15.3995 11.779 15.2413 12.0602 14.9601C12.3414 14.6789 12.4995 14.2976 12.5 13.8999V12.4556L15.207 14.272C15.4192 14.4182 15.6679 14.5028 15.9252 14.5162C16.1826 14.5296 16.4387 14.4715 16.665 14.3481C16.9227 14.205 17.1366 13.9944 17.2837 13.739C17.4308 13.4835 17.5056 13.1928 17.5 12.8981V7.9019C17.5056 7.60714 17.4308 7.31642 17.2837 7.06093C17.1366 6.80544 16.9227 6.59483 16.665 6.4517ZM11.5 13.8999C11.4998 14.0325 11.4471 14.1595 11.3534 14.2533C11.2596 14.347 11.1326 14.3997 11 14.3999H4C3.86744 14.3997 3.74036 14.347 3.64662 14.2533C3.55289 14.1595 3.50016 14.0325 3.5 13.8999V6.8999C3.50016 6.76734 3.55289 6.64026 3.64662 6.54652C3.74036 6.45279 3.86744 6.40006 4 6.3999H11C11.1326 6.40006 11.2596 6.45279 11.3534 6.54652C11.4471 6.64026 11.4998 6.76734 11.5 6.8999V13.8999ZM16.5 12.8979C16.5054 13.0115 16.4798 13.1244 16.426 13.2245C16.3721 13.3246 16.292 13.4082 16.1943 13.4663C16.1278 13.5039 16.052 13.5216 15.9757 13.5172C15.8995 13.5129 15.8261 13.4868 15.7643 13.4419L12.5 11.2515V9.5483L15.7637 7.3583C15.8259 7.3141 15.8993 7.28835 15.9755 7.28403C16.0517 7.27972 16.1275 7.297 16.1943 7.3339C16.292 7.39197 16.372 7.47549 16.4259 7.57554C16.4797 7.6756 16.5053 7.78841 16.5 7.9019V12.8979Z" fill="black"/>
</svg>
