<svg width="14" height="21" viewBox="0 0 14 21" fill="none" xmlns="http://www.w3.org/2000/svg">
<path d="M7.00164 0.0307617C3.3257 0.0307617 0.334961 3.0215 0.334961 6.69744C0.334961 7.80096 0.610859 8.8951 1.13535 9.86557L6.63707 19.8159C6.71031 19.9486 6.84988 20.0308 7.00164 20.0308C7.1534 20.0308 7.29297 19.9486 7.36621 19.8159L12.87 9.86228C13.3924 8.8951 13.6683 7.80092 13.6683 6.6974C13.6683 3.0215 10.6776 0.0307617 7.00164 0.0307617ZM7.00164 10.0308C5.16367 10.0308 3.66832 8.53541 3.66832 6.69744C3.66832 4.85947 5.16367 3.36412 7.00164 3.36412C8.83961 3.36412 10.335 4.85947 10.335 6.69744C10.335 8.53541 8.83961 10.0308 7.00164 10.0308Z" fill="#9AA5AB"/>
</svg>
