<svg width="201" height="70" viewBox="0 0 201 70" fill="none" xmlns="http://www.w3.org/2000/svg">
<path d="M101.221 22.7139H114.424V24.3619C114.424 26.2191 114.111 27.952 113.483 29.5607C112.868 31.1694 111.985 32.582 110.834 33.7983C109.683 35.0147 108.31 35.9629 106.714 36.643C105.119 37.3231 103.353 37.6631 101.417 37.6631C99.4164 37.6631 97.5984 37.3231 95.9636 36.643C94.3418 35.9498 92.9423 34.9885 91.7652 33.7591C90.5881 32.5297 89.6857 31.1041 89.0579 29.4823C88.4301 27.8474 88.1162 26.0948 88.1162 24.2245C88.1162 22.3673 88.4301 20.6278 89.0579 19.0061C89.6857 17.3712 90.5881 15.9456 91.7652 14.7293C92.9423 13.4998 94.3418 12.5451 95.9636 11.865C97.5984 11.1718 99.4164 10.8252 101.417 10.8252C103.052 10.8252 104.491 11.0018 105.734 11.3549C106.989 11.708 108.068 12.1789 108.971 12.7674C109.873 13.356 110.638 14.0034 111.266 14.7096C111.894 15.4028 112.417 16.0829 112.835 16.7499L107.264 19.3788C106.728 18.5548 105.995 17.8355 105.066 17.2208C104.151 16.6061 102.935 16.2987 101.417 16.2987C100.358 16.2987 99.3837 16.508 98.4943 16.9265C97.618 17.345 96.8595 17.9205 96.2186 18.6529C95.5777 19.3723 95.0807 20.2159 94.7276 21.1837C94.3876 22.1385 94.2175 23.1521 94.2175 24.2245C94.2175 25.3101 94.3876 26.3303 94.7276 27.285C95.0807 28.2398 95.5777 29.0834 96.2186 29.8158C96.8595 30.5482 97.618 31.1237 98.4943 31.5422C99.3837 31.9476 100.358 32.1504 101.417 32.1504C102.346 32.1504 103.19 32.0327 103.948 31.7972C104.707 31.5618 105.361 31.2218 105.91 30.7771C106.472 30.3324 106.911 29.8092 107.225 29.2076C107.551 28.5929 107.748 27.9193 107.813 27.1869H101.221V22.7139Z" fill="white"/>
<path d="M128.367 23.8126L138.216 37.1923H131.212L123.247 25.8725V37.1923H117.381V11.296H123.247V21.89L130.584 11.296H137.196L128.367 23.8126Z" fill="white"/>
<path d="M147.708 11.0605H157.125C158.786 11.0605 160.283 11.3548 161.617 11.9434C162.951 12.5188 164.011 13.4017 164.796 14.5919C165.593 15.769 165.992 17.2469 165.992 19.0256C165.992 20.7913 165.593 22.2953 164.796 23.5378C164.011 24.7672 162.951 25.7089 161.617 26.3629C160.283 27.0037 158.786 27.3242 157.125 27.3242H153.574V36.9568H147.708V11.0605ZM153.574 22.6942H155.497C156.294 22.6942 157.007 22.5765 157.635 22.3411C158.276 22.1057 158.786 21.7329 159.165 21.2229C159.544 20.6997 159.734 20.0131 159.734 19.1629C159.734 18.2997 159.544 17.6196 159.165 17.1226C158.786 16.6125 158.276 16.2463 157.635 16.024C157.007 15.8017 156.294 15.6905 155.497 15.6905H153.574V22.6942Z" fill="white"/>
<path d="M174.063 36.9568H168.099V20.8501H174.063V23.3416H173.965C174.07 23.0408 174.325 22.6615 174.73 22.2038C175.136 21.7329 175.705 21.3144 176.437 20.9482C177.17 20.5689 178.066 20.3793 179.125 20.3793C179.87 20.3793 180.557 20.497 181.185 20.7324C181.813 20.9547 182.27 21.1705 182.558 21.3798L180.243 26.2255C180.06 26.0032 179.733 25.7743 179.262 25.5389C178.805 25.2904 178.229 25.1662 177.536 25.1662C176.738 25.1662 176.078 25.3689 175.554 25.7743C175.044 26.1798 174.665 26.6702 174.417 27.2457C174.181 27.8212 174.063 28.364 174.063 28.874V36.9568Z" fill="white"/>
<path d="M191.945 37.4276C190.18 37.4276 188.61 37.068 187.237 36.3486C185.877 35.6162 184.804 34.6157 184.019 33.347C183.248 32.0653 182.862 30.6004 182.862 28.9525C182.862 27.3046 183.248 25.8397 184.019 24.558C184.804 23.2632 185.877 22.243 187.237 21.4975C188.61 20.752 190.18 20.3793 191.945 20.3793C193.711 20.3793 195.267 20.752 196.614 21.4975C197.962 22.243 199.014 23.2632 199.773 24.558C200.532 25.8397 200.911 27.3046 200.911 28.9525C200.911 30.6004 200.532 32.0653 199.773 33.347C199.014 34.6157 197.962 35.6162 196.614 36.3486C195.267 37.068 193.711 37.4276 191.945 37.4276ZM191.945 32.523C192.625 32.523 193.214 32.3726 193.711 32.0718C194.208 31.771 194.594 31.3459 194.868 30.7966C195.143 30.2473 195.28 29.6261 195.28 28.9329C195.28 28.2266 195.143 27.5988 194.868 27.0495C194.594 26.5002 194.208 26.0686 193.711 25.7547C193.214 25.4408 192.625 25.2839 191.945 25.2839C191.265 25.2839 190.67 25.4408 190.16 25.7547C189.663 26.0686 189.271 26.5002 188.983 27.0495C188.708 27.5988 188.571 28.2266 188.571 28.9329C188.571 29.6261 188.708 30.2473 188.983 30.7966C189.271 31.3459 189.663 31.771 190.16 32.0718C190.67 32.3726 191.265 32.523 191.945 32.523Z" fill="white"/>
<g clip-path="url(#clip0_145_2417)">
<path d="M40.0333 69.4766C48.7421 65.7169 55.2808 57.3679 56.0482 47.7727C56.8329 37.9562 51.1151 28.4609 41.5664 25.5442C41.352 25.4786 40.9846 25.5921 40.9994 25.2668C41.9805 25.2269 42.8537 25.0554 43.8593 25.1021C48.3297 25.3087 52.7026 27.5276 56.8333 29.0314C60.0457 30.2007 64.2054 31.5273 66.3643 27.8976C68.2017 24.8078 66.9506 21.443 66.6005 18.2119C66.5913 18.1265 66.5285 17.7682 66.7116 17.8592C67.8069 19.6964 68.6057 21.8428 69.2073 23.8982C75.1508 44.2026 62.7636 65.0871 42.1411 69.3707C41.7455 69.4529 40.4976 69.773 40.216 69.6582C40.1568 69.6341 40.0027 69.5225 40.0333 69.477V69.4766Z" fill="white"/>
<path d="M34.4005 40.2446C35.8009 40.2635 37.2334 41.0945 38.3863 41.8523C41.0301 43.5909 43.5766 46.4536 46.2574 47.9079C48.1809 48.9515 49.9012 47.8535 51.1816 46.365C51.6492 45.8215 52.0734 44.922 52.51 44.473C52.5864 44.3941 52.6166 44.3212 52.7498 44.3514C51.8665 55.2334 44.1375 65.4115 33.1277 67.4368C14.9643 70.7778 0.721938 52.9601 0.0310075 36.1812C-0.0233173 34.8614 -0.047864 32.1847 0.293779 30.9619C0.312289 30.8951 0.361383 30.8238 0.435828 30.823C0.668821 35.7367 2.62371 40.8401 5.09086 45.0496C9.73583 52.975 19.0584 59.0439 28.3242 59.5701C38.2318 60.1326 42.9822 52.2426 37.5719 43.7946C36.5791 42.2445 35.8665 41.7009 34.5683 40.5188C34.479 40.4375 34.3663 40.4 34.4001 40.245L34.4005 40.2446Z" fill="#FFC4CA"/>
<path d="M64.9019 14.7973L61.1736 12.4488C49.4442 5.62336 36.1797 3.87714 24.217 11.3335C19.3479 14.3685 14.3359 20.8207 13.2535 26.5349C13.2116 26.7555 13.2708 26.985 13.1943 27.2004C13.1303 27.3812 13.1098 27.285 13.0539 27.1787C12.7521 26.6065 12.5283 25.0955 12.4398 24.4094C10.7887 11.5976 20.5366 2.08342 32.6003 0.314652C44.2476 -1.39291 58.001 3.95284 64.485 13.9671C64.6508 14.2232 64.8745 14.4813 64.9019 14.7973Z" fill="white"/>
<path d="M19.1886 4.16895L17.9238 4.95569C10.3107 10.6662 8.77108 21.6247 9.77347 30.5398C10.6069 37.9502 13.2032 44.9488 17.0631 51.2693C17.2554 51.5841 17.7942 52.2545 17.9005 52.5255C17.9451 52.6398 17.8864 52.6576 17.7822 52.6447C17.148 52.565 15.7098 51.5745 15.1396 51.1807C11.1018 48.3913 7.19405 44.3017 4.84923 39.9762C-1.95183 27.4298 2.98247 14.3648 14.1738 6.67936C15.6884 5.63936 17.3882 4.58084 19.1886 4.16895Z" fill="#FFE2E5"/>
<path d="M58.769 17.8814C64.8686 17.3186 64.8586 26.9399 58.7468 26.3923C53.6974 25.9397 53.7924 18.3409 58.769 17.8814Z" fill="white"/>
<path d="M45.9679 40.7464C49.8129 40.0966 49.9006 45.7439 46.4363 45.6416C43.5044 45.5551 43.3522 41.1885 45.9679 40.7464Z" fill="#FF96A0"/>
</g>
<path d="M151.373 47.2409H149.355L149.027 48.1968H147.655L149.611 42.7974H151.134L153.081 48.1968H151.692L151.373 47.2409ZM151.028 46.2318L150.364 44.249L149.7 46.2318H151.028Z" fill="white"/>
<path d="M156.048 45.5016C156.048 44.9705 156.163 44.497 156.393 44.0765C156.623 43.6583 156.944 43.333 157.358 43.1028C157.769 42.8683 158.236 42.7488 158.756 42.7488C159.398 42.7488 159.947 42.9214 160.403 43.2622C160.863 43.5985 161.168 44.0588 161.323 44.643H159.872C159.766 44.4195 159.611 44.2491 159.411 44.1296C159.217 44.0123 158.995 43.9526 158.748 43.9526C158.34 43.9526 158.008 44.0942 157.756 44.3775C157.508 44.6563 157.384 45.0303 157.384 45.5016C157.384 45.9752 157.508 46.3514 157.756 46.6346C158.008 46.9179 158.34 47.0595 158.748 47.0595C158.995 47.0595 159.217 47.002 159.411 46.8825C159.611 46.7652 159.766 46.5904 159.872 46.3602H161.323C161.168 46.9511 160.863 47.4136 160.403 47.7499C159.947 48.0819 159.398 48.2456 158.756 48.2456C158.236 48.2456 157.769 48.1305 157.358 47.9004C156.944 47.6658 156.623 47.3405 156.393 46.9267C156.163 46.5085 156.048 46.0327 156.048 45.5016Z" fill="white"/>
<path d="M168.007 47.2409H165.989L165.661 48.1968H164.289L166.245 42.7974H167.768L169.715 48.1968H168.325L168.007 47.2409ZM167.662 46.2318L166.998 44.249L166.334 46.2318H167.662Z" fill="white"/>
<path d="M174.7 42.7974C175.271 42.7974 175.771 42.9102 176.196 43.1337C176.621 43.3594 176.948 43.6781 177.178 44.0897C177.413 44.4969 177.532 44.966 177.532 45.4971C177.532 46.0238 177.413 46.4929 177.178 46.9045C176.948 47.3183 176.616 47.637 176.187 47.8605C175.762 48.0862 175.266 48.1968 174.7 48.1968H172.682V42.7974H174.7ZM174.62 47.055C175.116 47.055 175.501 46.92 175.78 46.6478C176.056 46.3778 176.196 45.9928 176.196 45.4971C176.196 45.0014 176.056 44.6164 175.78 44.3375C175.501 44.0609 175.116 43.9215 174.62 43.9215H173.992V47.055H174.62Z" fill="white"/>
<path d="M181.808 43.8507V44.9394H183.57V45.9574H181.808V47.1435H183.809V48.1968H180.498V42.7974H183.809V43.8507H181.808Z" fill="white"/>
<path d="M192.892 42.7974V48.1968H191.573V44.9572L190.369 48.1968H189.307L188.085 44.9483V48.1968H186.775V42.7974H188.324L189.847 46.5327L191.343 42.7974H192.892Z" fill="white"/>
<path d="M200.912 42.7974L199.044 46.4088V48.1968H197.725V46.4088L195.857 42.7974H197.353L198.398 45.0545L199.433 42.7974H200.912Z" fill="white"/>
<path d="M91.2351 53.4626V53.9468H89.98V58.0707H89.3793V53.9468H88.1152V53.4626H91.2351Z" fill="white"/>
<path d="M97.598 53.4626V58.0707H96.9973V55.9818H94.6485V58.0707H94.0479V53.4626H94.6485V55.4798H96.9973V53.4626H97.598Z" fill="white"/>
<path d="M101.291 53.4626V58.0707H100.69V53.4626H101.291Z" fill="white"/>
<path d="M108.007 58.0711H107.406L104.985 54.3954V58.0711H104.385V53.4541H104.985L107.406 57.1208V53.4541H108.007V58.0711Z" fill="white"/>
<path d="M113.605 58.0707L111.704 55.9639V58.0707H111.104V53.4626H111.704V55.5963L113.614 53.4626H114.367L112.278 55.7667L114.394 58.0707H113.605Z" fill="white"/>
<path d="M118.843 56.4108C118.729 56.4108 118.63 56.3727 118.547 56.2942C118.469 56.218 118.431 56.1217 118.431 56.0074C118.431 55.8886 118.469 55.79 118.547 55.7115C118.63 55.6353 118.729 55.595 118.843 55.595C118.955 55.595 119.051 55.6353 119.13 55.7115C119.206 55.79 119.246 55.8886 119.246 56.0074C119.246 56.1217 119.206 56.218 119.13 56.2942C119.051 56.3727 118.955 56.4108 118.843 56.4108Z" fill="white"/>
<path d="M125.019 57.5778H126.632V58.0709H124.418V53.4629H125.019V57.5778Z" fill="white"/>
<path d="M129.943 53.9467V55.4887H131.62V55.9907H129.943V57.5775H131.826V58.0706H129.343V53.4536H131.826V53.9467H129.943Z" fill="white"/>
<path d="M137.531 57.0491H135.523L135.146 58.0711H134.51L136.177 53.49H136.877L138.535 58.0711H137.899L137.531 57.0491ZM137.361 56.556L136.527 54.2251L135.693 56.556H137.361Z" fill="white"/>
<path d="M143.76 58.0707L142.657 56.188H141.931V58.0707H141.33V53.4626H142.818C143.163 53.4626 143.457 53.5232 143.697 53.6419C143.941 53.7563 144.12 53.9154 144.235 54.1171C144.354 54.321 144.414 54.5541 144.414 54.8164C144.414 55.1346 144.32 55.4148 144.136 55.6591C143.957 55.8989 143.683 56.0603 143.32 56.1432L144.477 58.0707H143.76ZM141.931 55.7039H142.818C143.141 55.7039 143.383 55.6232 143.544 55.4618C143.71 55.3005 143.795 55.0853 143.795 54.8164C143.795 54.5429 143.715 54.33 143.553 54.1798C143.392 54.0319 143.145 53.9557 142.818 53.9557H141.931V55.7039Z" fill="white"/>
<path d="M151.042 58.0708H150.441L148.021 54.3952V58.0708H147.42V53.4539H148.021L150.441 57.1205V53.4539H151.042V58.0708Z" fill="white"/>
<path d="M156.534 56.1376C156.42 56.1376 156.322 56.0995 156.239 56.021C156.16 55.9448 156.122 55.8485 156.122 55.7342C156.122 55.6154 156.16 55.5168 156.239 55.4383C156.322 55.3621 156.42 55.3218 156.534 55.3218C156.647 55.3218 156.743 55.3621 156.821 55.4383C156.898 55.5168 156.938 55.6154 156.938 55.7342C156.938 55.8485 156.898 55.9448 156.821 56.021C156.743 56.0995 156.647 56.1376 156.534 56.1376Z" fill="white"/>
<path d="M164.149 57.0489H162.141L161.764 58.0709H161.128L162.795 53.4897H163.495L165.153 58.0709H164.517L164.149 57.0489ZM163.979 56.5558L163.145 54.2249L162.311 56.5558H163.979Z" fill="white"/>
<path d="M167.725 55.7579C167.725 55.3097 167.825 54.9063 168.029 54.5477C168.231 54.1891 168.507 53.9089 168.854 53.705C169.206 53.5032 169.598 53.4001 170.029 53.4001C170.531 53.4001 170.965 53.5234 171.338 53.7677C171.714 54.0075 171.987 54.3504 172.162 54.7987H171.436C171.311 54.5185 171.127 54.3034 170.889 54.1532C170.649 54.0053 170.363 53.9291 170.029 53.9291C169.706 53.9291 169.415 54.0053 169.159 54.1532C168.901 54.3034 168.697 54.5163 168.549 54.7897C168.406 55.0654 168.334 55.3881 168.334 55.7579C168.334 56.13 168.406 56.4527 168.549 56.7262C168.697 57.0018 168.901 57.2148 169.159 57.3627C169.415 57.5128 169.706 57.5868 170.029 57.5868C170.363 57.5868 170.649 57.5151 170.889 57.3716C171.127 57.2237 171.311 57.0086 171.436 56.7262H172.162C171.987 57.1699 171.714 57.5106 171.338 57.7482C170.965 57.988 170.531 58.1068 170.029 58.1068C169.598 58.1068 169.206 58.0082 168.854 57.8109C168.507 57.6092 168.231 57.3313 168.029 56.9772C167.825 56.6186 167.725 56.2129 167.725 55.7579Z" fill="white"/>
<path d="M178.677 53.4626V58.0707H178.076V55.9818H175.728V58.0707H175.127V53.4626H175.728V55.4798H178.076V53.4626H178.677Z" fill="white"/>
<path d="M182.366 53.4626V58.0707H181.766V53.4626H182.366Z" fill="white"/>
<path d="M186.061 53.9472V55.4892H187.737V55.9912H186.061V57.578H187.943V58.0711H185.46V53.4541H187.943V53.9472H186.061Z" fill="white"/>
<path d="M194.731 53.4629L192.992 58.0709H192.293L190.554 53.4629H191.199L192.643 57.4344L194.095 53.4629H194.731Z" fill="white"/>
<path d="M198.062 53.9469V55.4889H199.738V55.991H198.062V57.5778H199.944V58.0708H197.461V53.4539H199.944V53.9469H198.062Z" fill="white"/>
<line x1="144.378" y1="48.0743" x2="88.1169" y2="48.0743" stroke="white" stroke-width="0.273112"/>
<defs>
<clipPath id="clip0_145_2417">
<rect width="70.7003" height="69.6816" fill="white"/>
</clipPath>
</defs>
</svg>
