<svg width="24" height="25" viewBox="0 0 24 25" fill="none" xmlns="http://www.w3.org/2000/svg">
<path fill-rule="evenodd" clip-rule="evenodd" d="M21.6975 16.3335C21.6975 18.3601 20.0489 20.0062 18.0248 20.0062H5.97525C3.95114 20.0062 2.3025 18.3601 2.3025 16.3335V8.66649C2.3025 7.99008 2.4877 7.35479 2.80917 6.80954L8.68861 12.689C9.56822 13.5712 10.7461 14.0573 12.0013 14.0573C13.2538 14.0573 14.4317 13.5712 15.3113 12.689L21.1908 6.80954C21.5123 7.35479 21.6975 7.99004 21.6975 8.66649V16.3335H21.6975ZM18.0248 4.99378H5.97525C5.13938 4.99378 4.36777 5.27668 3.75052 5.74735L9.68911 11.6885C10.3038 12.3006 11.1242 12.6401 12.0013 12.6401C12.8757 12.6401 13.6962 12.3006 14.3108 11.6885L20.2494 5.74735C19.6322 5.27668 18.8607 4.99378 18.0248 4.99378ZM18.0248 3.57666H5.97525C3.16927 3.57666 0.885376 5.86055 0.885376 8.66654V16.3335C0.885376 19.1421 3.16927 21.4234 5.97525 21.4234H18.0248C20.8307 21.4234 23.1146 19.1421 23.1146 16.3335V8.66649C23.1146 5.8605 20.8307 3.57666 18.0248 3.57666Z" fill="#C23743"/>
</svg>
