<svg width="20" height="21" viewBox="0 0 20 21" fill="none" xmlns="http://www.w3.org/2000/svg">
<g clip-path="url(#clip0_100_179)">
<path d="M11.6714 12.2841C11.1739 12.6158 10.5959 12.7911 10 12.7911C9.40414 12.7911 8.82617 12.6158 8.32859 12.2841L0.133164 6.82028C0.0876953 6.78997 0.0433984 6.75837 0 6.72587V15.6789C0 16.7054 0.833008 17.52 1.84113 17.52H18.1588C19.1853 17.52 20 16.687 20 15.6789V6.72583C19.9565 6.75841 19.9121 6.79009 19.8665 6.82044L11.6714 12.2841Z" fill="#F3F3FB"/>
<path d="M0.783203 5.84539L8.97863 11.3092C9.28887 11.5161 9.64441 11.6195 9.99996 11.6195C10.3555 11.6195 10.7111 11.516 11.0214 11.3092L19.2168 5.84539C19.7072 5.51863 20 4.97176 20 4.38152C20 3.36664 19.1743 2.54102 18.1595 2.54102H1.84051C0.825664 2.54105 0 3.36668 0 4.3825C0 4.97176 0.292812 5.51863 0.783203 5.84539Z" fill="#F3F3FB"/>
</g>
<defs>
<clipPath id="clip0_100_179">
<rect width="20" height="20" fill="white" transform="translate(0 0.0307617)"/>
</clipPath>
</defs>
</svg>
