<svg width="22" height="25" viewBox="0 0 22 25" fill="none" xmlns="http://www.w3.org/2000/svg">
<path fill-rule="evenodd" clip-rule="evenodd" d="M15.35 0.710938C19.0886 0.710938 21.6 3.27107 21.6 7.08095V18.0159C21.6 21.8591 19.1659 24.3586 15.3989 24.3824L6.2511 24.386C2.51257 24.386 0 21.8258 0 18.0159V7.08095C0 3.23659 2.43409 0.738287 6.20116 0.715694L15.35 0.710938ZM15.35 2.49458L6.20711 2.49935C3.43888 2.51599 1.78364 4.22829 1.78364 7.08095V18.0159C1.78364 20.8876 3.45433 22.6023 6.24991 22.6023L15.3929 22.5987C18.1612 22.582 19.8163 20.8673 19.8163 18.0159V7.08095C19.8163 4.20927 18.1469 2.49458 15.35 2.49458ZM15.1207 16.7325C15.613 16.7325 16.0126 17.1321 16.0126 17.6243C16.0126 18.1166 15.613 18.5162 15.1207 18.5162H6.53542C6.04313 18.5162 5.64359 18.1166 5.64359 17.6243C5.64359 17.1321 6.04313 16.7325 6.53542 16.7325H15.1207ZM15.1207 11.7543C15.613 11.7543 16.0126 12.1539 16.0126 12.6462C16.0126 13.1385 15.613 13.538 15.1207 13.538H6.53542C6.04313 13.538 5.64359 13.1385 5.64359 12.6462C5.64359 12.1539 6.04313 11.7543 6.53542 11.7543H15.1207ZM9.81103 6.78771C10.3033 6.78771 10.7028 7.18725 10.7028 7.67954C10.7028 8.17183 10.3033 8.57137 9.81103 8.57137H6.53506C6.04277 8.57137 5.64323 8.17183 5.64323 7.67954C5.64323 7.18725 6.04277 6.78771 6.53506 6.78771H9.81103Z" fill="#A3A1A1"/>
</svg>
