<svg width="20" height="21" viewBox="0 0 20 21" fill="none" xmlns="http://www.w3.org/2000/svg">
<path d="M14.9527 7.47467L8.98945 3.09913C8.52369 2.75808 7.97258 2.55268 7.39723 2.50572C6.82187 2.45876 6.24474 2.57206 5.72985 2.83307C5.21496 3.09408 4.78241 3.49259 4.48017 3.98442C4.17794 4.47625 4.01782 5.04217 4.01758 5.61944V14.3705C4.01768 14.9481 4.17781 15.5143 4.48018 16.0063C4.78256 16.4984 5.21536 16.897 5.73055 17.158C6.24575 17.419 6.82318 17.5321 7.39878 17.4849C7.97437 17.4376 8.52561 17.2318 8.99132 16.8902L14.9546 12.5147C15.3504 12.2244 15.6723 11.8449 15.8942 11.4071C16.1161 10.9692 16.2317 10.4852 16.2317 9.99436C16.2317 9.50349 16.1161 9.01952 15.8942 8.58165C15.6723 8.14378 15.3504 7.76434 14.9546 7.47405L14.9527 7.47467ZM14.2126 11.5064L8.24935 15.882C7.96995 16.0861 7.63951 16.209 7.29459 16.237C6.94968 16.265 6.60375 16.197 6.29509 16.0405C5.98643 15.884 5.72709 15.6452 5.54577 15.3505C5.36445 15.0557 5.26822 14.7166 5.26773 14.3705V5.61944C5.26426 5.27274 5.35868 4.9321 5.54013 4.63665C5.72158 4.3412 5.9827 4.10294 6.29349 3.94924C6.55783 3.81478 6.85014 3.74454 7.14672 3.74421C7.5442 3.74573 7.9307 3.87478 8.24935 4.11238L14.2126 8.48793C14.4498 8.66213 14.6427 8.88973 14.7756 9.1523C14.9086 9.41487 14.9778 9.70505 14.9778 9.99936C14.9778 10.2937 14.9086 10.5839 14.7756 10.8464C14.6427 11.109 14.4498 11.3366 14.2126 11.5108V11.5064Z" fill="black"/>
</svg>
