<svg width="41" height="41" viewBox="0 0 41 41" fill="none" xmlns="http://www.w3.org/2000/svg">
<rect x="2" y="2" width="37" height="37" rx="18.5" fill="#FFD0B6"/>
<rect x="2" y="2" width="37" height="37" rx="18.5" stroke="#FFBE9A" stroke-width="4"/>
<path d="M19.968 27.243C19.32 27.243 18.708 27.117 18.132 26.865C17.556 26.613 17.055 26.256 16.629 25.794C16.209 25.332 15.906 24.786 15.72 24.156L17.817 23.589C17.967 24.105 18.24 24.504 18.636 24.786C19.038 25.062 19.479 25.197 19.959 25.191C20.385 25.191 20.766 25.092 21.102 24.894C21.438 24.696 21.702 24.429 21.894 24.093C22.086 23.751 22.182 23.37 22.182 22.95C22.182 22.308 21.975 21.771 21.561 21.339C21.147 20.907 20.613 20.691 19.959 20.691C19.761 20.691 19.566 20.718 19.374 20.772C19.188 20.826 19.008 20.901 18.834 20.997L17.844 19.287L22.2 15.561L22.389 16.083H16.224V14.04H24.171V16.092L20.67 19.458L20.652 18.819C21.438 18.873 22.107 19.092 22.659 19.476C23.217 19.86 23.643 20.355 23.937 20.961C24.237 21.567 24.387 22.23 24.387 22.95C24.387 23.766 24.186 24.498 23.784 25.146C23.388 25.794 22.854 26.307 22.182 26.685C21.516 27.057 20.778 27.243 19.968 27.243Z" fill="#C23743"/>
</svg>
