<svg width="41" height="41" viewBox="0 0 41 41" fill="none" xmlns="http://www.w3.org/2000/svg">
<rect x="2" y="2" width="37" height="37" rx="18.5" fill="#FFD0B6"/>
<rect x="2" y="2" width="37" height="37" rx="18.5" stroke="#FFBE9A" stroke-width="4"/>
<path d="M15.9 26.982V25.092L21.444 20.151C21.876 19.767 22.176 19.404 22.344 19.062C22.512 18.72 22.596 18.39 22.596 18.072C22.596 17.64 22.503 17.256 22.317 16.92C22.131 16.578 21.873 16.308 21.543 16.11C21.219 15.912 20.844 15.813 20.418 15.813C19.968 15.813 19.569 15.918 19.221 16.128C18.879 16.332 18.612 16.605 18.42 16.947C18.228 17.289 18.138 17.658 18.15 18.054H15.918C15.918 17.19 16.11 16.437 16.494 15.795C16.884 15.153 17.418 14.655 18.096 14.301C18.78 13.947 19.569 13.77 20.463 13.77C21.291 13.77 22.035 13.956 22.695 14.328C23.355 14.694 23.874 15.204 24.252 15.858C24.63 16.506 24.819 17.253 24.819 18.099C24.819 18.717 24.735 19.236 24.567 19.656C24.399 20.076 24.147 20.463 23.811 20.817C23.481 21.171 23.07 21.564 22.578 21.996L18.645 25.479L18.447 24.939H24.819V26.982H15.9Z" fill="#C23743"/>
</svg>
