<svg width="16" height="10" viewBox="0 0 16 10" fill="none" xmlns="http://www.w3.org/2000/svg">
<path d="M15.6677 1.23951C15.5615 1.1324 15.4351 1.04739 15.2958 0.989373C15.1566 0.931358 15.0072 0.901489 14.8564 0.901489C14.7055 0.901489 14.5562 0.931358 14.4169 0.989373C14.2776 1.04739 14.1513 1.1324 14.045 1.23951L8.81134 6.4732C8.7051 6.58031 8.57872 6.66532 8.43947 6.72333C8.30021 6.78135 8.15085 6.81122 8 6.81122C7.84915 6.81122 7.69979 6.78135 7.56053 6.72333C7.42128 6.66532 7.29489 6.58031 7.18866 6.4732L1.95497 1.23951C1.84874 1.1324 1.72235 1.04739 1.5831 0.989373C1.44385 0.931358 1.29449 0.901489 1.14363 0.901489C0.99278 0.901489 0.843419 0.931358 0.704167 0.989373C0.564915 1.04739 0.438528 1.1324 0.332297 1.23951C0.119462 1.45361 0 1.74324 0 2.04513C0 2.34702 0.119462 2.63665 0.332297 2.85075L5.57742 8.09587C6.2202 8.73786 7.09153 9.09846 8 9.09846C8.90847 9.09846 9.7798 8.73786 10.4226 8.09587L15.6677 2.85075C15.8805 2.63665 16 2.34702 16 2.04513C16 1.74324 15.8805 1.45361 15.6677 1.23951Z" fill="#C23743"/>
</svg>
