<svg width="12" height="8" viewBox="0 0 12 8" fill="none" xmlns="http://www.w3.org/2000/svg">
<path d="M5.83674 7.33512C5.72707 7.33575 5.61835 7.31473 5.51682 7.27326C5.41529 7.23179 5.32294 7.17068 5.24508 7.09345L0.245076 2.09345C0.0881567 1.93653 0 1.7237 0 1.50178C0 1.27986 0.0881567 1.06704 0.245076 0.910115C0.401996 0.753196 0.614825 0.665039 0.836743 0.665039C1.05866 0.665039 1.27149 0.753196 1.42841 0.910115L5.83674 5.32678L10.2451 0.918449C10.4045 0.781927 10.6096 0.710588 10.8193 0.718689C11.029 0.72679 11.228 0.813734 11.3764 0.962146C11.5248 1.11056 11.6117 1.30951 11.6198 1.51924C11.6279 1.72897 11.5566 1.93403 11.4201 2.09345L6.42008 7.09345C6.26486 7.2474 6.05536 7.3342 5.83674 7.33512Z" fill="black"/>
</svg>
