<svg width="140" height="108" viewBox="0 0 140 108" fill="none" xmlns="http://www.w3.org/2000/svg">
<g filter="url(#filter0_d_156_2699)">
<rect x="40" y="36" width="60" height="28" rx="6" fill="white" shape-rendering="crispEdges"/>
<path fill-rule="evenodd" clip-rule="evenodd" d="M55.9999 42.25C56.1399 42.2499 56.2772 42.289 56.3961 42.3629C56.5151 42.4368 56.6109 42.5425 56.6729 42.668L58.5549 46.483L62.7649 47.095C62.9034 47.1151 63.0334 47.1736 63.1404 47.2637C63.2474 47.3539 63.327 47.4722 63.3703 47.6052C63.4136 47.7383 63.4188 47.8808 63.3853 48.0167C63.3518 48.1525 63.281 48.2763 63.1809 48.374L60.1349 51.344L60.8539 55.536C60.8776 55.6739 60.8623 55.8157 60.8096 55.9454C60.7569 56.0751 60.669 56.1874 60.5558 56.2697C60.4426 56.352 60.3086 56.401 60.169 56.4111C60.0294 56.4212 59.8898 56.3921 59.7659 56.327L55.9999 54.347L52.2339 56.327C52.1101 56.392 51.9706 56.4211 51.8311 56.411C51.6916 56.4009 51.5578 56.352 51.4446 56.2699C51.3314 56.1877 51.2435 56.0755 51.1907 55.946C51.138 55.8165 51.1224 55.6749 51.1459 55.537L51.8659 51.343L48.8179 48.374C48.7175 48.2763 48.6464 48.1525 48.6128 48.0165C48.5791 47.8805 48.5842 47.7378 48.6275 47.6045C48.6708 47.4713 48.7506 47.3528 48.8578 47.2626C48.9649 47.1724 49.0953 47.114 49.2339 47.094L53.4439 46.483L55.3269 42.668C55.3889 42.5425 55.4848 42.4368 55.6037 42.3629C55.7227 42.289 55.8599 42.2499 55.9999 42.25Z" fill="#C23743"/>
<path d="M77.732 55V52.627H73.56V50.912L77.333 45.2H79.44V50.919H80.266V52.627H79.44V55H77.732ZM75.541 50.912L77.732 50.919L77.725 47.531L75.541 50.912ZM82.5424 55.182C82.2998 55.182 82.0921 55.098 81.9194 54.93C81.7514 54.7573 81.6674 54.5473 81.6674 54.3C81.6674 54.062 81.7514 53.8567 81.9194 53.684C82.0921 53.5113 82.2998 53.425 82.5424 53.425C82.7851 53.425 82.9928 53.5113 83.1654 53.684C83.3381 53.8567 83.4244 54.062 83.4244 54.3C83.4244 54.5473 83.3381 54.7573 83.1654 54.93C82.9928 55.098 82.7851 55.182 82.5424 55.182ZM88.0736 55.182C87.4716 55.182 86.9256 55.0443 86.4356 54.769C85.9456 54.4937 85.5536 54.125 85.2596 53.663C84.9703 53.1963 84.8256 52.6783 84.8256 52.109C84.8256 51.661 84.926 51.241 85.1266 50.849C85.332 50.4523 85.6073 50.1187 85.9526 49.848C85.682 49.6007 85.4603 49.309 85.2876 48.973C85.1196 48.6323 85.0356 48.2683 85.0356 47.881C85.0356 47.3537 85.1733 46.873 85.4486 46.439C85.724 46.005 86.0903 45.6597 86.5476 45.403C87.0096 45.1463 87.5183 45.018 88.0736 45.018C88.6336 45.018 89.1423 45.1463 89.5996 45.403C90.057 45.6597 90.4233 46.005 90.6986 46.439C90.974 46.873 91.1116 47.3537 91.1116 47.881C91.1116 48.2683 91.0276 48.6323 90.8596 48.973C90.6963 49.309 90.4746 49.6007 90.1946 49.848C90.5493 50.1187 90.827 50.4523 91.0276 50.849C91.233 51.241 91.3356 51.661 91.3356 52.109C91.3356 52.6737 91.1886 53.1893 90.8946 53.656C90.6053 54.118 90.2133 54.489 89.7186 54.769C89.224 55.0443 88.6756 55.182 88.0736 55.182ZM88.0736 53.474C88.3443 53.474 88.5893 53.4133 88.8086 53.292C89.028 53.166 89.203 53.0003 89.3336 52.795C89.4643 52.5897 89.5296 52.361 89.5296 52.109C89.5296 51.857 89.4643 51.6283 89.3336 51.423C89.203 51.2177 89.028 51.0543 88.8086 50.933C88.5893 50.807 88.3443 50.744 88.0736 50.744C87.8076 50.744 87.565 50.807 87.3456 50.933C87.1263 51.0543 86.949 51.2177 86.8136 51.423C86.683 51.6283 86.6176 51.857 86.6176 52.109C86.6176 52.361 86.683 52.5897 86.8136 52.795C86.949 53.0003 87.1263 53.166 87.3456 53.292C87.565 53.4133 87.8076 53.474 88.0736 53.474ZM88.0736 49.036C88.3023 49.036 88.51 48.9847 88.6966 48.882C88.8833 48.7747 89.0303 48.6347 89.1376 48.462C89.2496 48.2893 89.3056 48.0957 89.3056 47.881C89.3056 47.6663 89.2496 47.4727 89.1376 47.3C89.0303 47.1273 88.8833 46.9897 88.6966 46.887C88.51 46.7797 88.3023 46.726 88.0736 46.726C87.8496 46.726 87.6443 46.7797 87.4576 46.887C87.271 46.9897 87.1216 47.1273 87.0096 47.3C86.8976 47.4727 86.8416 47.6663 86.8416 47.881C86.8416 48.0957 86.8976 48.2893 87.0096 48.462C87.1216 48.6347 87.271 48.7747 87.4576 48.882C87.6443 48.9847 87.8496 49.036 88.0736 49.036Z" fill="#101010"/>
</g>
<defs>
<filter id="filter0_d_156_2699" x="0" y="0" width="140" height="108" filterUnits="userSpaceOnUse" color-interpolation-filters="sRGB">
<feFlood flood-opacity="0" result="BackgroundImageFix"/>
<feColorMatrix in="SourceAlpha" type="matrix" values="0 0 0 0 0 0 0 0 0 0 0 0 0 0 0 0 0 0 127 0" result="hardAlpha"/>
<feOffset dy="4"/>
<feGaussianBlur stdDeviation="20"/>
<feComposite in2="hardAlpha" operator="out"/>
<feColorMatrix type="matrix" values="0 0 0 0 0.129412 0 0 0 0 0.168627 0 0 0 0 0.2 0 0 0 0.08 0"/>
<feBlend mode="normal" in2="BackgroundImageFix" result="effect1_dropShadow_156_2699"/>
<feBlend mode="normal" in="SourceGraphic" in2="effect1_dropShadow_156_2699" result="shape"/>
</filter>
</defs>
</svg>
