<svg width="16" height="17" viewBox="0 0 16 17" fill="none" xmlns="http://www.w3.org/2000/svg">
<g clip-path="url(#clip0_1_1400)">
<path fill-rule="evenodd" clip-rule="evenodd" d="M7.99992 0.960938C8.13993 0.960848 8.27717 0.999952 8.39611 1.07382C8.51505 1.1477 8.61094 1.25339 8.67292 1.37894L10.5549 5.19394L14.7649 5.80594C14.9034 5.82605 15.0334 5.88449 15.1404 5.97466C15.2474 6.06482 15.327 6.18312 15.3703 6.31617C15.4136 6.44923 15.4188 6.59174 15.3853 6.72759C15.3518 6.86344 15.281 6.98722 15.1809 7.08494L12.1349 10.0549L12.8539 14.2469C12.8776 14.3848 12.8623 14.5266 12.8096 14.6563C12.7569 14.786 12.669 14.8983 12.5558 14.9806C12.4426 15.0629 12.3086 15.1119 12.169 15.122C12.0294 15.1321 11.8898 15.103 11.7659 15.0379L7.99992 13.0579L4.23392 15.0379C4.1101 15.1029 3.97058 15.132 3.83111 15.1219C3.69163 15.1118 3.55776 15.0629 3.4446 14.9808C3.33144 14.8986 3.24351 14.7864 3.19073 14.6569C3.13795 14.5274 3.12243 14.3858 3.14592 14.2479L3.86592 10.0539L0.817921 7.08494C0.717487 6.98726 0.64642 6.86341 0.612772 6.72741C0.579125 6.59141 0.584242 6.44871 0.627545 6.31547C0.670848 6.18223 0.750604 6.06378 0.857776 5.97355C0.964949 5.88332 1.09525 5.82491 1.23392 5.80494L5.44392 5.19394L7.32692 1.37894C7.3889 1.25339 7.48478 1.1477 7.60372 1.07382C7.72266 0.999952 7.8599 0.960848 7.99992 0.960938Z" fill="#C23743"/>
</g>
<defs>
<clipPath id="clip0_1_1400">
<rect width="16" height="16" fill="white" transform="translate(0 0.710938)"/>
</clipPath>
</defs>
</svg>
