<svg width="20" height="21" viewBox="0 0 20 21" fill="none" xmlns="http://www.w3.org/2000/svg">
<path d="M17.5 13.2423C17.5 11.5234 16.8407 10.5887 15.9461 10.0862C15.8725 5.19343 14.0302 3.00684 10 3.00684C5.96977 3.00684 4.12273 5.1982 4.05318 10.1039C3.19682 10.6016 2.5 11.5255 2.5 13.2423C2.5 16.5764 4.98045 16.9616 6.84659 16.9616C7.14045 16.9616 7.40091 16.7734 7.49364 16.4939C8.18909 14.3973 8.18909 12.0866 7.49364 9.99002C7.40091 9.71115 7.14045 9.52229 6.84659 9.52229C6.52341 9.52229 6.00182 9.52229 5.43045 9.6232C5.61386 5.28684 7.39545 4.36911 10 4.36911C12.6045 4.36911 14.3868 5.28752 14.5695 9.62593C14.0909 9.54479 13.6041 9.52229 13.1534 9.52229C12.8595 9.52229 12.5991 9.71047 12.5064 9.99002C11.9057 11.8016 11.8245 13.7721 12.2616 15.6273C11.5361 15.6396 10.8414 15.6184 10.1861 15.5652C9.80364 15.5373 9.48182 15.8148 9.45182 16.1905C9.42182 16.5655 9.70136 16.8941 10.0764 16.9248C10.6484 16.9705 11.2477 16.9943 11.8689 16.9943C12.2936 16.9943 12.7286 16.9834 13.1718 16.9616C14.2648 16.9616 17.5 16.9412 17.5 13.2423ZM6.34341 15.5864C4.52364 15.4923 3.86364 14.8425 3.86364 13.2423C3.86364 11.6421 4.52364 10.9923 6.34341 10.8982C6.75523 12.4262 6.75523 14.0577 6.34341 15.5857V15.5864ZM13.6566 15.5864C13.2448 14.0584 13.2448 12.4262 13.6566 10.8989C15.4764 10.993 16.1364 11.6427 16.1364 13.243C16.1364 14.8432 15.4764 15.4923 13.6566 15.5864Z" fill="black"/>
</svg>
