<svg width="24" height="25" viewBox="0 0 24 25" fill="none" xmlns="http://www.w3.org/2000/svg">
<path d="M22.5262 17.4455C22.4865 17.4125 17.9948 14.198 16.776 14.4088C16.1903 14.5122 15.855 14.9113 15.1838 15.7115C15.0758 15.8405 14.8155 16.1488 14.6145 16.3685C14.1902 16.2303 13.7764 16.0619 13.3762 15.8645C11.3104 14.8588 9.64124 13.1896 8.6355 11.1237C8.43815 10.7236 8.26972 10.3098 8.1315 9.8855C8.352 9.68375 8.661 9.4235 8.793 9.3125C9.58875 8.645 9.98775 8.30975 10.0912 7.72325C10.3035 6.509 7.0875 2.0135 7.0545 1.973C6.90804 1.76529 6.7173 1.59269 6.49603 1.46766C6.27476 1.34263 6.02849 1.26829 5.775 1.25C4.4715 1.25 0.75 6.077 0.75 6.89075C0.75 6.938 0.81825 11.741 6.741 17.7658C12.759 23.6817 17.562 23.75 17.6092 23.75C18.423 23.75 23.25 20.0285 23.25 18.725C23.2317 18.4714 23.1573 18.2251 23.0321 18.0038C22.907 17.7825 22.7342 17.5918 22.5262 17.4455ZM17.5267 22.2455C16.8713 22.1915 12.8407 21.6597 7.8015 16.709C2.82525 11.6427 2.307 7.601 2.25525 6.97475C3.23833 5.43173 4.42559 4.02877 5.78475 2.804C5.81475 2.834 5.8545 2.879 5.9055 2.9375C6.94787 4.36042 7.84581 5.8837 8.586 7.48475C8.34529 7.7269 8.09088 7.95503 7.824 8.168C7.41014 8.48334 7.03011 8.84075 6.69 9.2345L6.50775 9.4895L6.56175 9.79775C6.72047 10.4853 6.96356 11.1506 7.2855 11.7785C8.43892 14.147 10.3528 16.0607 12.7215 17.2137C13.3493 17.5361 14.0146 17.7795 14.7023 17.9382L15.0105 17.9923L15.2655 17.81C15.6607 17.4684 16.0196 17.0869 16.3365 16.6715C16.5712 16.391 16.8855 16.0168 17.004 15.911C18.6096 16.6505 20.1368 17.5495 21.5625 18.5945C21.6248 18.647 21.6683 18.6875 21.6975 18.7137C20.4729 20.0733 19.0699 21.2609 17.5267 22.244V22.2455Z" fill="#C23743"/>
</svg>
