<svg width="170" height="171" viewBox="0 0 170 171" fill="none" xmlns="http://www.w3.org/2000/svg">
<g filter="url(#filter0_d_100_190)">
<path d="M85 48.5308C71.469 48.5308 60.5 59.4998 60.5 73.0308C60.5 86.5617 71.469 97.5308 85 97.5308C98.531 97.5308 109.5 86.5617 109.5 73.0308C109.5 59.4998 98.531 48.5308 85 48.5308Z" stroke="white" stroke-opacity="0.5" shape-rendering="crispEdges"/>
<path d="M87.8287 67.5025C87.1773 67.5024 86.5518 67.758 86.0869 68.2144C85.6221 68.6708 85.3549 69.2914 85.343 69.9428L85.319 71.2928C85.3176 71.3653 85.3009 71.4366 85.27 71.5022C85.239 71.5678 85.1946 71.6261 85.1396 71.6733C85.0845 71.7204 85.0201 71.7555 84.9506 71.776C84.8811 71.7966 84.808 71.8022 84.7362 71.7925L83.3982 71.6108C81.6376 71.3708 79.9507 70.5599 78.3324 69.2116C77.8199 72.0488 78.821 74.0142 81.2322 75.5305L82.7296 76.4716C82.8007 76.5164 82.8598 76.5778 82.9017 76.6507C82.9436 76.7235 82.967 76.8055 82.9699 76.8895C82.9728 76.9735 82.9551 77.0569 82.9182 77.1324C82.8814 77.2079 82.8267 77.2733 82.7587 77.3228L81.3942 78.3196C82.2059 78.3702 82.9764 78.3342 83.6159 78.2074C87.6599 77.3999 90.3487 74.3571 90.3487 69.3376C90.3487 68.9279 89.4813 67.5025 87.8287 67.5025ZM83.6287 69.9111C83.6437 69.0848 83.9021 68.2814 84.3715 67.6013C84.8409 66.9212 85.5006 66.3947 86.2678 66.0877C87.035 65.7807 87.8758 65.7069 88.6848 65.8754C89.4938 66.044 90.2351 66.4475 90.8159 67.0354C91.4253 67.0311 91.9439 67.1854 93.1036 66.4825C92.8164 67.8882 92.675 68.4985 92.063 69.3376C92.063 75.8879 88.037 79.0731 83.9519 79.8882C81.1507 80.4471 77.0776 79.5291 75.9102 78.3102C76.505 78.2639 78.9222 78.0042 80.3193 76.9816C79.1373 76.2025 74.4324 73.4339 77.5242 65.9905C78.9753 67.6851 80.447 68.8388 81.9384 69.4508C82.931 69.8579 83.1744 69.8494 83.6296 69.9119L83.6287 69.9111Z" fill="white"/>
</g>
<defs>
<filter id="filter0_d_100_190" x="0" y="0.0307617" width="170" height="170" filterUnits="userSpaceOnUse" color-interpolation-filters="sRGB">
<feFlood flood-opacity="0" result="BackgroundImageFix"/>
<feColorMatrix in="SourceAlpha" type="matrix" values="0 0 0 0 0 0 0 0 0 0 0 0 0 0 0 0 0 0 127 0" result="hardAlpha"/>
<feOffset dy="12"/>
<feGaussianBlur stdDeviation="30"/>
<feComposite in2="hardAlpha" operator="out"/>
<feColorMatrix type="matrix" values="0 0 0 0 0.69351 0 0 0 0 0.299913 0 0 0 0 1 0 0 0 0.1 0"/>
<feBlend mode="normal" in2="BackgroundImageFix" result="effect1_dropShadow_100_190"/>
<feBlend mode="normal" in="SourceGraphic" in2="effect1_dropShadow_100_190" result="shape"/>
</filter>
</defs>
</svg>
