<svg width="48" height="48" viewBox="0 0 48 48" fill="none" xmlns="http://www.w3.org/2000/svg">
<path d="M0.5 24C0.5 11.0213 11.0213 0.5 24 0.5C36.9787 0.5 47.5 11.0213 47.5 24C47.5 36.9787 36.9787 47.5 24 47.5C11.0213 47.5 0.5 36.9787 0.5 24Z" stroke="white" stroke-opacity="0.5"/>
<path d="M26.8287 18.4717C26.1773 18.4716 25.5518 18.7273 25.0869 19.1837C24.6221 19.64 24.3549 20.2607 24.343 20.912L24.319 22.262C24.3176 22.3345 24.3009 22.4059 24.27 22.4714C24.239 22.537 24.1946 22.5953 24.1396 22.6425C24.0845 22.6897 24.0201 22.7247 23.9506 22.7452C23.8811 22.7658 23.808 22.7714 23.7362 22.7617L22.3982 22.58C20.6376 22.34 18.9507 21.5292 17.3324 20.1809C16.8199 23.018 17.821 24.9835 20.2322 26.4997L21.7296 27.4409C21.8007 27.4856 21.8598 27.5471 21.9017 27.6199C21.9436 27.6927 21.967 27.7747 21.9699 27.8587C21.9728 27.9427 21.9551 28.0261 21.9182 28.1016C21.8814 28.1772 21.8267 28.2425 21.7587 28.292L20.3942 29.2889C21.2059 29.3395 21.9764 29.3034 22.6159 29.1766C26.6599 28.3692 29.3487 25.3263 29.3487 20.3069C29.3487 19.8972 28.4813 18.4717 26.8287 18.4717ZM22.6287 20.8803C22.6437 20.0541 22.9021 19.2506 23.3715 18.5705C23.8409 17.8904 24.5006 17.3639 25.2678 17.0569C26.035 16.7499 26.8758 16.6761 27.6848 16.8447C28.4938 17.0132 29.2351 17.4167 29.8159 18.0046C30.4253 18.0003 30.9439 18.1546 32.1036 17.4517C31.8164 18.8575 31.675 19.4677 31.063 20.3069C31.063 26.8572 27.037 30.0423 22.9519 30.8575C20.1507 31.4163 16.0776 30.4983 14.9102 29.2795C15.505 29.2332 17.9222 28.9734 19.3193 27.9509C18.1373 27.1717 13.4324 24.4032 16.5242 16.9597C17.9753 18.6543 19.447 19.808 20.9384 20.42C21.931 20.8272 22.1744 20.8186 22.6296 20.8812L22.6287 20.8803Z" fill="white"/>
</svg>
