<svg width="170" height="171" viewBox="0 0 170 171" fill="none" xmlns="http://www.w3.org/2000/svg">
<g filter="url(#filter0_d_100_187)">
<path d="M85 48.5308C71.469 48.5308 60.5 59.4998 60.5 73.0308C60.5 86.5617 71.469 97.5308 85 97.5308C98.531 97.5308 109.5 86.5617 109.5 73.0308C109.5 59.4998 98.531 48.5308 85 48.5308Z" stroke="white" stroke-opacity="0.5" shape-rendering="crispEdges"/>
<path d="M87.925 72.4921L84.0679 69.9207C83.9702 69.8586 83.8582 69.8231 83.7426 69.8174C83.6271 69.8118 83.5121 69.8363 83.4089 69.8885C83.3062 69.944 83.2204 70.0264 83.161 70.1269C83.1015 70.2275 83.0706 70.3423 83.0714 70.4591V75.6019C83.0706 75.7187 83.1015 75.8335 83.161 75.9341C83.2204 76.0346 83.3062 76.117 83.4089 76.1725C83.5037 76.2199 83.6083 76.2447 83.7143 76.2448C83.8396 76.2434 83.962 76.2073 84.0679 76.1403L87.925 73.5689C88.0145 73.5105 88.0881 73.4306 88.139 73.3366C88.1899 73.2426 88.2166 73.1374 88.2166 73.0305C88.2166 72.9236 88.1899 72.8184 88.139 72.7244C88.0881 72.6304 88.0145 72.5505 87.925 72.4921ZM84.3571 74.4046V71.6564L86.4143 73.0305L84.3571 74.4046ZM93.542 68.3537C93.4681 68.0575 93.3235 67.7835 93.1206 67.5554C92.9176 67.3273 92.6624 67.1518 92.3768 67.0439C89.6286 65.9832 85.2411 65.9912 85 65.9912C84.7589 65.9912 80.3714 65.9832 77.6232 67.0439C77.3376 67.1518 77.0824 67.3273 76.8794 67.5554C76.6765 67.7835 76.5319 68.0575 76.458 68.3537C76.2491 69.1492 76 70.6117 76 73.0305C76 75.4492 76.2491 76.9117 76.458 77.7073C76.5319 78.0035 76.6765 78.2775 76.8794 78.5056C77.0824 78.7337 77.3376 78.9092 77.6232 79.0171C80.2589 80.0376 84.3893 80.0698 84.9438 80.0698H85.0562C85.6107 80.0698 89.7411 80.0376 92.3768 79.0171C92.6624 78.9092 92.9176 78.7337 93.1206 78.5056C93.3235 78.2775 93.4681 78.0035 93.542 77.7073C93.7509 76.9117 94 75.4492 94 73.0305C94 70.6117 93.7509 69.1492 93.542 68.3537ZM92.2964 77.3859C92.2727 77.4831 92.226 77.5732 92.1603 77.6487C92.0946 77.7242 92.0118 77.7829 91.9187 77.8198C89.3714 78.8001 85.0482 78.7841 85 78.7841H84.992C84.9518 78.7841 80.6286 78.8001 78.0813 77.8198C77.9882 77.7829 77.9054 77.7242 77.8397 77.6487C77.774 77.5732 77.7273 77.4831 77.7036 77.3859C77.5107 76.6546 77.2857 75.3126 77.2857 73.0305C77.2857 70.7484 77.5107 69.4064 77.7036 68.6751C77.7273 68.5779 77.774 68.4878 77.8397 68.4123C77.9054 68.3368 77.9882 68.2781 78.0813 68.2412C80.5321 67.301 84.6464 67.2769 84.9839 67.2769H85C85.0482 67.2769 89.3714 67.2609 91.9187 68.2412C92.0118 68.2781 92.0946 68.3368 92.1603 68.4123C92.226 68.4878 92.2727 68.5779 92.2964 68.6751C92.4893 69.4064 92.7143 70.7484 92.7143 73.0305C92.7143 75.3126 92.4893 76.6546 92.2964 77.3859Z" fill="white"/>
</g>
<defs>
<filter id="filter0_d_100_187" x="0" y="0.0307617" width="170" height="170" filterUnits="userSpaceOnUse" color-interpolation-filters="sRGB">
<feFlood flood-opacity="0" result="BackgroundImageFix"/>
<feColorMatrix in="SourceAlpha" type="matrix" values="0 0 0 0 0 0 0 0 0 0 0 0 0 0 0 0 0 0 127 0" result="hardAlpha"/>
<feOffset dy="12"/>
<feGaussianBlur stdDeviation="30"/>
<feComposite in2="hardAlpha" operator="out"/>
<feColorMatrix type="matrix" values="0 0 0 0 0.69351 0 0 0 0 0.299913 0 0 0 0 1 0 0 0 0.1 0"/>
<feBlend mode="normal" in2="BackgroundImageFix" result="effect1_dropShadow_100_187"/>
<feBlend mode="normal" in="SourceGraphic" in2="effect1_dropShadow_100_187" result="shape"/>
</filter>
</defs>
</svg>
