<svg width="24" height="25" viewBox="0 0 24 25" fill="none" xmlns="http://www.w3.org/2000/svg">
<g clip-path="url(#clip0_68_7326)">
<path d="M20.4338 3.98523C18.1793 1.73907 15.18 0.501282 11.9879 0.5C8.80298 0.5 5.79895 1.73669 3.52954 3.9823C1.2561 6.23175 0.00292969 9.22113 0 12.3889V12.3925V12.3947C0.000366211 14.312 0.504089 16.2462 1.46027 18.0117L0.0327759 24.5L6.59583 23.0071C8.25806 23.8448 10.1127 24.2865 11.9833 24.2872H11.9881C15.1725 24.2872 18.1765 23.0504 20.4463 20.8046C22.7217 18.5533 23.9755 15.5677 23.9769 12.398C23.9778 9.25061 22.7197 6.26288 20.4338 3.98523ZM11.9879 22.4141H11.9837C10.3041 22.4133 8.63983 21.9916 7.17114 21.1942L6.86078 21.0258L2.49664 22.0184L3.44458 17.7103L3.26184 17.3951C2.35327 15.8283 1.87317 14.0987 1.87317 12.3927C1.87665 6.87079 6.41364 2.37317 11.9875 2.37317C14.6803 2.37427 17.2104 3.41815 19.1118 5.31219C21.0419 7.23553 22.1045 9.75177 22.1036 12.3975C22.1014 17.9207 17.5635 22.4141 11.9879 22.4141Z" fill="#C23743"/>
<path d="M8.72565 7.1499H8.20013C8.01721 7.1499 7.72021 7.21838 7.46899 7.49176C7.21759 7.76532 6.50916 8.42651 6.50916 9.77124C6.50916 11.116 7.49188 12.4153 7.62885 12.5978C7.76599 12.7802 9.52582 15.6279 12.313 16.7234C14.6295 17.6338 15.101 17.4527 15.6036 17.4071C16.1064 17.3617 17.2261 16.7461 17.4547 16.108C17.6832 15.4698 17.6832 14.9227 17.6147 14.8085C17.546 14.6946 17.3631 14.6263 17.089 14.4897C16.8147 14.3529 15.4707 13.6805 15.2193 13.5892C14.9679 13.4982 14.7852 13.4526 14.6022 13.7263C14.4193 13.9995 13.8808 14.6316 13.7208 14.814C13.5609 14.9965 13.4009 15.0194 13.1266 14.8826C12.8523 14.7455 11.9781 14.4518 10.9306 13.5209C10.1152 12.7963 9.54944 11.8724 9.3894 11.5988C9.22955 11.3254 9.37238 11.1775 9.50989 11.0411C9.63312 10.9188 9.79956 10.7514 9.93671 10.5919C10.0737 10.4323 10.1127 10.3184 10.2042 10.136C10.2956 9.95361 10.2498 9.79395 10.1813 9.65735C10.1127 9.52057 9.58643 8.16907 9.34253 7.62854H9.34271C9.13727 7.17334 8.92102 7.15796 8.72565 7.1499Z" fill="#C23743"/>
</g>
<defs>
<clipPath id="clip0_68_7326">
<rect width="24" height="24" fill="white" transform="translate(0 0.5)"/>
</clipPath>
</defs>
</svg>
