<svg width="12" height="8" viewBox="0 0 12 8" fill="none" xmlns="http://www.w3.org/2000/svg">
<path d="M6.21626 7.01676C6.10659 7.01739 5.99787 6.99637 5.89634 6.9549C5.79481 6.91343 5.70246 6.85232 5.62459 6.77509L0.624593 1.77509C0.467673 1.61817 0.379517 1.40534 0.379517 1.18342C0.379517 0.961505 0.467673 0.748676 0.624593 0.591756C0.781513 0.434836 0.994342 0.34668 1.21626 0.34668C1.43818 0.34668 1.65101 0.434836 1.80793 0.591756L6.21626 5.00842L10.6246 0.60009C10.784 0.463568 10.9891 0.392229 11.1988 0.40033C11.4085 0.408431 11.6075 0.495375 11.7559 0.643787C11.9043 0.792199 11.9913 0.991148 11.9994 1.20088C12.0075 1.41061 11.9361 1.61567 11.7996 1.77509L6.79959 6.77509C6.64438 6.92904 6.43488 7.01584 6.21626 7.01676Z" fill="white"/>
</svg>
