<svg width="64" height="64" viewBox="0 0 64 64" fill="none" xmlns="http://www.w3.org/2000/svg">
<rect x="1" y="1" width="62" height="62" rx="23" fill="#FF3636" fill-opacity="0.1"/>
<rect x="1" y="1" width="62" height="62" rx="23" stroke="#C23743" stroke-width="2"/>
<g clip-path="url(#clip0_1_5230)">
<path d="M34 32C34 34.9413 36.392 37.3333 39.3333 37.3333C42.2747 37.3333 44.6667 34.9413 44.6667 32C44.6667 29.0587 42.2747 26.6667 39.3333 26.6667C36.392 26.6667 34 29.0587 34 32ZM39.3333 29.3333C40.804 29.3333 42 30.5293 42 32C42 33.4707 40.804 34.6667 39.3333 34.6667C37.8627 34.6667 36.6667 33.4707 36.6667 32C36.6667 30.5293 37.8627 29.3333 39.3333 29.3333ZM32 26.6667C34.9413 26.6667 37.3333 24.2747 37.3333 21.3333C37.3333 18.392 34.9413 16 32 16C29.0587 16 26.6667 18.392 26.6667 21.3333C26.6667 24.2747 29.0587 26.6667 32 26.6667ZM32 18.6667C33.4707 18.6667 34.6667 19.8627 34.6667 21.3333C34.6667 22.804 33.4707 24 32 24C30.5293 24 29.3333 22.804 29.3333 21.3333C29.3333 19.8627 30.5293 18.6667 32 18.6667ZM24.6667 37.3333C27.608 37.3333 30 34.9413 30 32C30 29.0587 27.608 26.6667 24.6667 26.6667C21.7253 26.6667 19.3333 29.0587 19.3333 32C19.3333 34.9413 21.7253 37.3333 24.6667 37.3333ZM24.6667 29.3333C26.1373 29.3333 27.3333 30.5293 27.3333 32C27.3333 33.4707 26.1373 34.6667 24.6667 34.6667C23.196 34.6667 22 33.4707 22 32C22 30.5293 23.196 29.3333 24.6667 29.3333ZM48 44V48H45.3333V44C45.3333 42.7493 44.4853 41.7107 43.3187 41.4213L39.3413 46.0307L35.3107 41.4347C34.1653 41.7373 33.3333 42.7707 33.3333 43.9987V47.9987H30.6667V43.9987C30.6667 42.748 29.8187 41.7093 28.6533 41.42L24.6747 46.0293L20.644 41.4333C19.4987 41.736 18.6667 42.7693 18.6667 43.9973V47.9973H16V43.9973C16 41.1333 18.248 38.7987 21.1187 38.6813L21.756 38.6547L24.66 41.9653L27.5147 38.6573L28.1467 38.6747C29.7013 38.7173 31.0613 39.4173 32.004 40.4907C32.9333 39.436 34.2667 38.7413 35.7853 38.68L36.4227 38.6533L39.3267 41.964L42.1813 38.656L42.8133 38.6733C45.7227 38.7533 48.0013 41.0907 48.0013 43.9947L48 44Z" fill="#C23743"/>
</g>
<defs>
<clipPath id="clip0_1_5230">
<rect width="32" height="32" fill="white" transform="translate(16 16)"/>
</clipPath>
</defs>
</svg>
