<svg width="64" height="64" viewBox="0 0 64 64" fill="none" xmlns="http://www.w3.org/2000/svg">
<rect x="1" y="1" width="62" height="62" rx="23" fill="#FF3636" fill-opacity="0.1"/>
<rect x="1" y="1" width="62" height="62" rx="23" stroke="#C23743" stroke-width="2"/>
<g clip-path="url(#clip0_1_5223)">
<path d="M45.3384 21.9973C45.3398 20.844 44.6384 19.8506 43.5518 19.4666L34.9318 16.4253C33.0838 15.7706 31.0451 15.7693 29.1958 16.416L20.4704 19.4693C19.3798 19.852 18.6758 20.844 18.6758 22C18.6758 23.1546 19.3811 24.1466 20.4718 24.528L23.9998 25.7586V28C23.9998 32.412 27.5878 36 31.9998 36C36.4118 36 39.9998 32.412 39.9998 28V25.7573L42.6664 24.8266V30.6653C42.6664 31.4026 43.2638 31.9986 43.9998 31.9986C44.7358 31.9986 45.3331 31.4026 45.3331 30.6653C45.3331 30.6653 45.3384 22.0093 45.3384 21.9973ZM37.3331 28C37.3331 30.9413 34.9411 33.3333 31.9998 33.3333C29.0584 33.3333 26.6664 30.9413 26.6664 28V26.688L29.1491 27.5546C30.0678 27.8746 31.0331 28.0346 31.9984 28.0346C32.9638 28.0346 33.9291 27.8746 34.8491 27.5546L37.3331 26.688V28ZM33.9704 25.036C32.6984 25.4786 31.2984 25.4786 30.0264 25.036L21.3504 21.9866L30.0758 18.9346C31.3584 18.4853 32.7678 18.4893 34.0438 18.94L42.6624 22.004L33.9704 25.036ZM43.0998 46.3973C43.2478 47.1186 42.7851 47.824 42.0638 47.9733C41.9731 47.992 41.8824 48.0013 41.7931 48.0013C41.1744 48.0013 40.6184 47.568 40.4878 46.9373C40.0131 44.636 38.5864 42.596 36.5731 41.3426L33.0238 45.548C32.5171 46.1546 31.4824 46.1546 30.9758 45.548L27.4678 41.34C25.4131 42.596 23.9864 44.636 23.5118 46.9373C23.3638 47.6586 22.6571 48.1173 21.9358 47.9733C21.2144 47.824 20.7504 47.1186 20.8998 46.3973C21.5224 43.3826 23.3878 40.716 26.0158 39.08C27.1571 38.368 28.6611 38.6066 29.5158 39.6306L31.9998 42.6106L34.4824 39.6306C35.3358 38.6053 36.8411 38.3666 37.9811 39.0773C40.6131 40.716 42.4771 43.384 43.0998 46.3973Z" fill="#C23743"/>
</g>
<defs>
<clipPath id="clip0_1_5223">
<rect width="32" height="32" fill="white" transform="translate(16 16)"/>
</clipPath>
</defs>
</svg>
