<svg width="64" height="64" viewBox="0 0 64 64" fill="none" xmlns="http://www.w3.org/2000/svg">
<rect x="1" y="1" width="62" height="62" rx="23" fill="#FF3636" fill-opacity="0.1"/>
<rect x="1" y="1" width="62" height="62" rx="23" stroke="#C23743" stroke-width="2"/>
<path d="M25.3333 27.3333C25.3333 29.1747 23.8413 30.6667 22 30.6667C20.1587 30.6667 18.6667 29.1747 18.6667 27.3333C18.6667 25.492 20.1587 24 22 24C23.8413 24 25.3333 25.492 25.3333 27.3333ZM22.6667 40H20.6667C19.564 40 18.6667 39.1027 18.6667 38V36.6667C18.6667 35.564 19.564 34.6667 20.6667 34.6667H21.3333C22.0693 34.6667 22.6667 34.0693 22.6667 33.3333C22.6667 32.5973 22.0693 32 21.3333 32H20.6667C18.0933 32 16 34.0933 16 36.6667V38C16 39.8547 17.096 41.4467 18.6667 42.1987V46.6667C18.6667 47.4027 19.264 48 20 48C20.736 48 21.3333 47.4027 21.3333 46.6667V42.6667H22.6667C23.4027 42.6667 24 42.0693 24 41.3333C24 40.5973 23.4027 40 22.6667 40ZM31.3333 20C29.492 20 28 21.492 28 23.3333C28 25.1747 29.492 26.6667 31.3333 26.6667C33.1747 26.6667 34.6667 25.1747 34.6667 23.3333C34.6667 21.492 33.1747 20 31.3333 20ZM32 38.6667H30.6667C29.196 38.6667 28 37.4707 28 36V33.3333C28 31.8627 29.196 30.6667 30.6667 30.6667C31.4027 30.6667 32 30.0693 32 29.3333C32 28.5973 31.4027 28 30.6667 28C27.7253 28 25.3333 30.392 25.3333 33.3333V36C25.3333 37.9653 26.4133 39.6667 28 40.592V46.6667C28 47.4027 28.5973 48 29.3333 48C30.0693 48 30.6667 47.4027 30.6667 46.6667V41.3333H32C32.736 41.3333 33.3333 40.736 33.3333 40C33.3333 39.264 32.736 38.6667 32 38.6667ZM40.6667 22.6667C42.508 22.6667 44 21.1747 44 19.3333C44 17.492 42.508 16 40.6667 16C38.8253 16 37.3333 17.492 37.3333 19.3333C37.3333 21.1747 38.8253 22.6667 40.6667 22.6667ZM46.6667 29.3333V34.6667C46.6667 36.632 45.5867 38.3333 44 39.2587V46.6667C44 47.4027 43.4027 48 42.6667 48C41.9307 48 41.3333 47.4027 41.3333 46.6667V40H40V46.6667C40 47.4027 39.4027 48 38.6667 48C37.9307 48 37.3333 47.4027 37.3333 46.6667V39.2587C35.7467 38.3333 34.6667 36.632 34.6667 34.6667V29.3333C34.6667 26.392 37.0587 24 40 24H41.3333C44.2747 24 46.6667 26.392 46.6667 29.3333ZM44 29.3333C44 27.8627 42.804 26.6667 41.3333 26.6667H40C38.5293 26.6667 37.3333 27.8627 37.3333 29.3333V34.6667C37.3333 36.1373 38.5293 37.3333 40 37.3333H41.3333C42.804 37.3333 44 36.1373 44 34.6667V29.3333Z" fill="#C23743"/>
</svg>
