<svg width="48" height="48" viewBox="0 0 48 48" fill="none" xmlns="http://www.w3.org/2000/svg">
<path d="M0.5 24C0.5 11.0213 11.0213 0.5 24 0.5C36.9787 0.5 47.5 11.0213 47.5 24C47.5 36.9787 36.9787 47.5 24 47.5C11.0213 47.5 0.5 36.9787 0.5 24Z" stroke="white" stroke-opacity="0.5"/>
<path d="M26.925 23.4613L23.0679 20.8899C22.9702 20.8279 22.8582 20.7923 22.7426 20.7867C22.6271 20.781 22.5121 20.8055 22.4089 20.8578C22.3062 20.9132 22.2204 20.9957 22.161 21.0962C22.1015 21.1967 22.0706 21.3115 22.0714 21.4283V26.5712C22.0706 26.688 22.1015 26.8028 22.161 26.9033C22.2204 27.0038 22.3062 27.0862 22.4089 27.1417C22.5037 27.1892 22.6083 27.2139 22.7143 27.214C22.8396 27.2127 22.962 27.1765 23.0679 27.1096L26.925 24.5381C27.0145 24.4797 27.0881 24.3999 27.139 24.3059C27.1899 24.2119 27.2166 24.1066 27.2166 23.9997C27.2166 23.8928 27.1899 23.7876 27.139 23.6936C27.0881 23.5996 27.0145 23.5198 26.925 23.4613ZM23.3571 25.3738V22.6256L25.4143 23.9997L23.3571 25.3738ZM32.542 19.323C32.4681 19.0267 32.3235 18.7528 32.1206 18.5246C31.9176 18.2965 31.6624 18.121 31.3768 18.0131C28.6286 16.9524 24.2411 16.9605 24 16.9605C23.7589 16.9605 19.3714 16.9524 16.6232 18.0131C16.3376 18.121 16.0824 18.2965 15.8794 18.5246C15.6765 18.7528 15.5319 19.0267 15.458 19.323C15.2491 20.1185 15 21.581 15 23.9997C15 26.4185 15.2491 27.881 15.458 28.6765C15.5319 28.9728 15.6765 29.2467 15.8794 29.4748C16.0824 29.703 16.3376 29.8785 16.6232 29.9863C19.2589 31.0069 23.3893 31.039 23.9438 31.039H24.0562C24.6107 31.039 28.7411 31.0069 31.3768 29.9863C31.6624 29.8785 31.9176 29.703 32.1206 29.4748C32.3235 29.2467 32.4681 28.9728 32.542 28.6765C32.7509 27.881 33 26.4185 33 23.9997C33 21.581 32.7509 20.1185 32.542 19.323ZM31.2964 28.3551C31.2727 28.4523 31.226 28.5425 31.1603 28.6179C31.0946 28.6934 31.0118 28.7521 30.9187 28.789C28.3714 29.7694 24.0482 29.7533 24 29.7533H23.992C23.9518 29.7533 19.6286 29.7694 17.0813 28.789C16.9882 28.7521 16.9054 28.6934 16.8397 28.6179C16.774 28.5425 16.7273 28.4523 16.7036 28.3551C16.5107 27.6238 16.2857 26.2819 16.2857 23.9997C16.2857 21.7176 16.5107 20.3756 16.7036 19.6444C16.7273 19.5472 16.774 19.457 16.8397 19.3815C16.9054 19.306 16.9882 19.2474 17.0813 19.2105C19.5321 18.2703 23.6464 18.2462 23.9839 18.2462H24C24.0482 18.2462 28.3714 18.2301 30.9187 19.2105C31.0118 19.2474 31.0946 19.306 31.1603 19.3815C31.226 19.457 31.2727 19.5472 31.2964 19.6444C31.4893 20.3756 31.7143 21.7176 31.7143 23.9997C31.7143 26.2819 31.4893 27.6238 31.2964 28.3551Z" fill="white"/>
</svg>
