<svg width="33" height="33" viewBox="0 0 33 33" fill="none" xmlns="http://www.w3.org/2000/svg">
    <path d="M10.5746 28.5H22.4261M13.8333 17.1667L15.6111 19.1667L19.1667 15.1667M6.4479 14.4672C5.98807 13.1784 5.75815 12.534 5.85533 12.1212C5.96318 11.6688 6.2808 11.3172 6.68612 11.1996C7.05663 11.0917 7.63285 11.3514 8.78323 11.8697L8.7874 11.8716C9.80662 12.33 10.3162 12.5592 10.7962 12.5472C11.3248 12.5328 11.8321 12.3192 12.2362 11.9388C12.6026 11.5954 12.8476 11.049 13.3367 9.95833L14.4262 7.52774C15.331 5.50965 15.7836 4.5 16.5004 4.5C17.2171 4.5 17.6698 5.50964 18.5746 7.52773L19.66 9.9492C20.1518 11.046 20.3983 11.5944 20.7646 11.9388C21.1687 12.318 21.6771 12.5328 22.2045 12.5472C22.6833 12.5592 23.1941 12.33 24.2134 11.8704L24.2349 11.8607C25.3749 11.3488 25.946 11.0923 26.3146 11.1996C26.7199 11.3172 27.0376 11.6688 27.1442 12.1212C27.2426 12.5339 27.0128 13.1769 26.552 14.4664L24.5722 20.017C23.7285 22.3799 23.3066 23.5618 22.4226 24.2304C21.5373 24.9 20.3936 24.9 18.1074 24.9H14.8933C12.606 24.9 11.4635 24.9 10.5793 24.2304C9.69404 23.5608 9.27094 22.3764 8.42474 20.0064L6.4479 14.4672Z" stroke="#0049F8" stroke-width="1.8" stroke-linecap="round" stroke-linejoin="round"/>
</svg>
