<svg width="33" height="33" viewBox="0 0 33 33" fill="none" xmlns="http://www.w3.org/2000/svg">
    <path d="M19.1667 11.2047C19.6637 11.2047 20.0667 10.8017 20.0667 10.3047C20.0667 9.80763 19.6637 9.40469 19.1667 9.40469V11.2047ZM13.8333 14.738C13.3363 14.738 12.9333 15.141 12.9333 15.638C12.9333 16.1351 13.3363 16.538 13.8333 16.538V14.738ZM17.4 8.30469C17.4 7.80763 16.9971 7.40469 16.5 7.40469C16.0029 7.40469 15.6 7.80763 15.6 8.30469H17.4ZM15.6 17.638C15.6 18.1351 16.0029 18.538 16.5 18.538C16.9971 18.538 17.4 18.1351 17.4 17.638H15.6ZM3.97687 27.5723C3.5724 27.8613 3.47873 28.4234 3.76765 28.8278C4.05657 29.2323 4.61867 29.326 5.02313 29.037L3.97687 27.5723ZM13.8333 21.6377L14.5533 21.0977L14.0257 20.3942L13.3102 20.9053L13.8333 21.6377ZM17.8333 26.971L17.1133 27.511L17.6956 28.2874L18.426 27.6483L17.8333 26.971ZM28.5 17.6377H29.4C29.4 17.399 29.3052 17.17 29.1364 17.0013C28.9676 16.8325 28.7387 16.7377 28.5 16.7377L28.5 17.6377ZM21.8333 16.738C21.3362 16.738 20.9333 17.141 20.9333 17.6381C20.9334 18.1351 21.3363 18.538 21.8334 18.538L21.8333 16.738ZM27.6 24.3047C27.6 24.8017 28.0029 25.2047 28.5 25.2047C28.9971 25.2047 29.4 24.8017 29.4 24.3047H27.6ZM24.9333 13.638C24.9333 14.1351 25.3363 14.538 25.8333 14.538C26.3304 14.538 26.7333 14.1351 26.7333 13.638H24.9333ZM9.33811 20.9475C9.69313 21.2954 10.2629 21.2896 10.6108 20.9346C10.9587 20.5796 10.953 20.0098 10.5979 19.6619L9.33811 20.9475ZM19.1667 9.40469H16.5V11.2047H19.1667V9.40469ZM16.5 9.40469H15.1667V11.2047H16.5V9.40469ZM15.1667 13.8714H17.8333V12.0714H15.1667V13.8714ZM17.8333 14.738H16.5V16.538H17.8333V14.738ZM16.5 14.738H13.8333V16.538H16.5V14.738ZM18.2667 14.3047C18.2667 14.544 18.0727 14.738 17.8333 14.738V16.538C19.0668 16.538 20.0667 15.5381 20.0667 14.3047H18.2667ZM17.8333 13.8714C18.0727 13.8714 18.2667 14.0654 18.2667 14.3047H20.0667C20.0667 13.0713 19.0668 12.0714 17.8333 12.0714V13.8714ZM12.9333 11.638C12.9333 12.8715 13.9332 13.8714 15.1667 13.8714V12.0714C14.9273 12.0714 14.7333 11.8773 14.7333 11.638H12.9333ZM15.1667 9.40469C13.9332 9.40469 12.9333 10.4046 12.9333 11.638H14.7333C14.7333 11.3987 14.9273 11.2047 15.1667 11.2047V9.40469ZM17.4 10.3047V8.30469H15.6V10.3047H17.4ZM17.4 17.638V15.638H15.6V17.638H17.4ZM5.02313 29.037L14.3565 22.37L13.3102 20.9053L3.97687 27.5723L5.02313 29.037ZM13.1133 22.1777L17.1133 27.511L18.5533 26.431L14.5533 21.0977L13.1133 22.1777ZM18.426 27.6483L29.0927 18.315L27.9073 16.9603L17.2407 26.2937L18.426 27.6483ZM21.8334 18.538L28.5 18.5377L28.5 16.7377L21.8333 16.738L21.8334 18.538ZM27.6 17.6377V24.3047H29.4V17.6377H27.6ZM8.06667 13.638C8.06667 8.98042 11.8424 5.20469 16.5 5.20469V3.40469C10.8483 3.40469 6.26667 7.98631 6.26667 13.638H8.06667ZM16.5 5.20469C21.1576 5.20469 24.9333 8.98042 24.9333 13.638H26.7333C26.7333 7.98631 22.1517 3.40469 16.5 3.40469V5.20469ZM10.5979 19.6619C9.03483 18.1302 8.06667 15.998 8.06667 13.638H6.26667C6.26667 16.5012 7.44375 19.0912 9.33811 20.9475L10.5979 19.6619Z" fill="#0049F8"/>
</svg>
