<svg width="33" height="33" viewBox="0 0 33 33" fill="none" xmlns="http://www.w3.org/2000/svg">
    <path d="M5.24716 14.6762L4.3995 14.9786L4.39952 14.9787L5.24716 14.6762ZM4.65458 12.3302L3.77911 12.1215L3.77853 12.1239L4.65458 12.3302ZM5.48538 11.4086L5.73616 12.2729L5.73696 12.2727L5.48538 11.4086ZM7.58249 12.0787L7.21276 12.8993L7.21283 12.8993L7.58249 12.0787ZM7.58665 12.0806L7.21699 12.9012L7.21749 12.9014L7.58665 12.0806ZM9.59549 12.7562L9.61798 13.6559L9.62 13.6559L9.59549 12.7562ZM11.0354 12.1478L10.4199 11.4912L10.4186 11.4924L11.0354 12.1478ZM12.1359 10.1673L12.9571 10.5356L12.9572 10.5354L12.1359 10.1673ZM13.2254 7.73672L12.4042 7.36853L12.4042 7.36859L13.2254 7.73672ZM21.2218 24.4394L21.7647 25.1572H21.7648L21.2218 24.4394ZM9.3786 24.4394L9.92198 23.7219L9.92151 23.7216L9.3786 24.4394ZM7.224 20.2154L6.37636 20.5179L6.3764 20.518L7.224 20.2154ZM9.37386 27.809C8.87681 27.809 8.47386 28.2119 8.47386 28.709C8.47386 29.206 8.87681 29.609 9.37386 29.609V27.809ZM21.2254 29.609C21.7225 29.609 22.1254 29.206 22.1254 28.709C22.1254 28.2119 21.7225 27.809 21.2254 27.809V29.609ZM16.7644 6.40299L17.5968 6.0609L17.5872 6.03742L17.5762 6.01453L16.7644 6.40299ZM16.7452 8.72414C16.9342 9.18389 17.46 9.40343 17.9198 9.2145C18.3795 9.02556 18.5991 8.4997 18.4101 8.03995L16.7452 8.72414ZM23.1717 21.1397C23.1717 20.6427 22.7688 20.2397 22.2717 20.2397C21.7747 20.2397 21.3717 20.6427 21.3717 21.1397H23.1717ZM16.479 18.8192L16.4789 19.7192H16.479V18.8192ZM27.0875 18.8192V19.7192H27.0876L27.0875 18.8192ZM27.9642 17.3993L28.7506 16.9615L28.7506 16.9615L27.9642 17.3993ZM22.6603 7.87203L23.4466 7.43426L23.4465 7.43406L22.6603 7.87203ZM20.9062 7.87203L20.12 7.43406L20.1199 7.43426L20.9062 7.87203ZM15.6023 17.3993L14.8159 16.9615L14.8159 16.9615L15.6023 17.3993ZM15.4835 17.8773L14.5838 17.898L15.4835 17.8773ZM22.8661 11.5874C22.8661 11.0903 22.4632 10.6874 21.9661 10.6874C21.4691 10.6874 21.0661 11.0903 21.0661 11.5874H22.8661ZM21.0661 13.6871C21.0661 14.1842 21.4691 14.5871 21.9661 14.5871C22.4632 14.5871 22.8661 14.1842 22.8661 13.6871H21.0661ZM22.8661 15.9307C22.8661 15.4336 22.4632 15.0307 21.9661 15.0307C21.4691 15.0307 21.0661 15.4336 21.0661 15.9307H22.8661ZM21.0661 15.9978C21.0661 16.4948 21.4691 16.8978 21.9661 16.8978C22.4632 16.8978 22.8661 16.4948 22.8661 15.9978H21.0661ZM6.09482 14.3737C5.85996 13.7155 5.70155 13.2697 5.60976 12.936C5.5123 12.5816 5.53753 12.5071 5.53063 12.5364L3.77853 12.1239C3.67446 12.566 3.76605 13.0201 3.87421 13.4134C3.98805 13.8272 4.17452 14.3481 4.3995 14.9786L6.09482 14.3737ZM5.53005 12.5389C5.5718 12.3638 5.67741 12.29 5.73616 12.2729L5.23459 10.5442C4.48269 10.7624 3.95307 11.3918 3.77912 12.1215L5.53005 12.5389ZM5.73696 12.2727C5.63087 12.3036 5.63092 12.2493 5.94584 12.3589C6.23311 12.4588 6.62131 12.6328 7.21276 12.8993L7.95222 11.2582C7.39329 11.0063 6.91818 10.7913 6.53712 10.6588C6.1837 10.5358 5.71039 10.4057 5.23379 10.5445L5.73696 12.2727ZM7.21283 12.8993L7.21699 12.9012L7.95631 11.26L7.95215 11.2581L7.21283 12.8993ZM7.21749 12.9014C7.71423 13.1248 8.13353 13.3141 8.48898 13.4418C8.85384 13.5729 9.22055 13.6658 9.61798 13.6559L9.57299 11.8565C9.49044 11.8585 9.36234 11.8429 9.09758 11.7478C8.82341 11.6493 8.47828 11.4948 7.95581 11.2598L7.21749 12.9014ZM9.62 13.6559C10.3798 13.6352 11.0952 13.3275 11.6523 12.8031L10.4186 11.4924C10.1674 11.7288 9.86834 11.8484 9.57098 11.8565L9.62 13.6559ZM11.651 12.8044C11.9372 12.5361 12.1448 12.2161 12.3341 11.8608C12.5199 11.5117 12.7176 11.0697 12.9571 10.5356L11.3147 9.79906C11.0651 10.3556 10.8958 10.7321 10.7453 11.0148C10.5981 11.2911 10.5001 11.416 10.4199 11.4912L11.651 12.8044ZM14.0467 8.10491C14.5111 7.069 14.8213 6.38244 15.0959 5.94354C15.3894 5.47462 15.4478 5.60898 15.2996 5.60898V3.80898C14.4347 3.80898 13.9084 4.44817 13.5701 4.9886C13.2131 5.55904 12.8445 6.38636 12.4042 7.36853L14.0467 8.10491ZM20.6789 23.7216C20.4046 23.929 20.0669 24.06 19.48 24.132C18.865 24.2074 18.0718 24.209 16.9067 24.209V26.009C18.0277 26.009 18.9495 26.0105 19.6992 25.9186C20.4769 25.8232 21.1537 25.6193 21.7647 25.1572L20.6789 23.7216ZM16.9067 24.209H13.6926V26.009H16.9067V24.209ZM13.6926 24.209C12.5268 24.209 11.7337 24.2074 11.119 24.132C10.5325 24.06 10.1956 23.9291 9.92198 23.7219L8.83523 25.1568C9.44576 25.6192 10.1221 25.8232 10.8998 25.9186C11.6492 26.0105 12.571 26.009 13.6926 26.009V24.209ZM9.92151 23.7216C9.63959 23.5083 9.38976 23.1877 9.09907 22.5778C8.80122 21.9529 8.50096 21.1153 8.07159 19.9128L6.3764 20.518C6.79323 21.6855 7.12762 22.6251 7.47419 23.3523C7.82794 24.0945 8.23231 24.7008 8.83569 25.1572L9.92151 23.7216ZM8.07163 19.9129L6.0948 14.3737L4.39952 14.9787L6.37636 20.5179L8.07163 19.9129ZM9.37386 29.609H21.2254V27.809H9.37386V29.609ZM12.9572 10.5354L14.0467 8.10486L12.4042 7.36859L11.3147 9.79917L12.9572 10.5354ZM15.2996 5.60898C15.1912 5.60898 15.192 5.52955 15.3346 5.70338C15.4907 5.89369 15.6833 6.22887 15.9525 6.79146L17.5762 6.01453C17.3051 5.44794 17.0334 4.93612 16.7262 4.56172C16.4056 4.17083 15.9441 3.80898 15.2996 3.80898V5.60898ZM15.9319 6.74509L16.7452 8.72414L18.4101 8.03995L17.5968 6.0609L15.9319 6.74509ZM23.1717 21.2936V21.1397H21.3717V21.2936H23.1717ZM21.7648 25.1572C22.4358 24.6497 22.7823 23.9482 22.9625 23.2693C23.1403 22.5994 23.1717 21.8932 23.1717 21.2936H21.3717C21.3717 21.8502 21.3393 22.3682 21.2227 22.8077C21.1084 23.2383 20.9301 23.5316 20.6789 23.7216L21.7648 25.1572ZM16.479 19.7192H27.0875V17.9192H16.479V19.7192ZM27.0876 19.7192C27.4101 19.7191 27.7285 19.6382 28.0121 19.4825L27.1458 17.9047C27.1298 17.9135 27.1095 17.9191 27.0873 17.9192L27.0876 19.7192ZM28.0121 19.4825C28.2959 19.3267 28.5367 19.1003 28.7081 18.8226L27.1766 17.8769C27.1713 17.8854 27.1617 17.896 27.1458 17.9047L28.0121 19.4825ZM28.7081 18.8226C28.8797 18.5447 28.9752 18.226 28.9827 17.898L27.1832 17.8566C27.1831 17.8618 27.1816 17.8687 27.1766 17.8769L28.7081 18.8226ZM28.9827 17.898C28.9903 17.5699 28.9095 17.2471 28.7506 16.9615L27.1778 17.837C27.1822 17.8449 27.1833 17.8515 27.1832 17.8566L28.9827 17.898ZM28.7506 16.9615L23.4466 7.43426L21.8739 8.3098L27.1778 17.837L28.7506 16.9615ZM23.4465 7.43406C22.7271 6.14254 20.8394 6.14254 20.12 7.43406L21.6925 8.31C21.7017 8.29333 21.711 8.28555 21.7217 8.27967C21.7352 8.27219 21.7566 8.26542 21.7832 8.26542C21.8099 8.26542 21.8313 8.27219 21.8448 8.27967C21.8555 8.28555 21.8647 8.29333 21.874 8.31L23.4465 7.43406ZM20.1199 7.43426L14.8159 16.9615L16.3886 17.837L21.6926 8.30981L20.1199 7.43426ZM14.8159 16.9615C14.6569 17.2471 14.5762 17.5699 14.5838 17.898L16.3833 17.8566C16.3832 17.8515 16.3843 17.8449 16.3887 17.837L14.8159 16.9615ZM14.5838 17.898C14.5913 18.2261 14.6868 18.5447 14.8584 18.8226L16.3899 17.8769C16.3848 17.8687 16.3834 17.8618 16.3833 17.8566L14.5838 17.898ZM14.8584 18.8226C15.0298 19.1003 15.2706 19.3267 15.5544 19.4825L16.4207 17.9047C16.4048 17.896 16.3952 17.8854 16.3899 17.8769L14.8584 18.8226ZM15.5544 19.4825C15.838 19.6382 16.1564 19.7191 16.4789 19.7192L16.4792 17.9192C16.457 17.9191 16.4367 17.9135 16.4207 17.9047L15.5544 19.4825ZM21.0661 11.5874V13.6871H22.8661V11.5874H21.0661ZM21.0661 15.9307V15.9978H22.8661V15.9307H21.0661Z" fill="#0049F8"/>
</svg>
