<svg width="33" height="33" viewBox="0 0 33 33" fill="none" xmlns="http://www.w3.org/2000/svg">
    <path d="M6.57204 22.0389C6.79327 22.4214 7.28265 22.5521 7.6651 22.3308C8.04755 22.1096 8.17824 21.6202 7.957 21.2378L6.57204 22.0389ZM21.8375 5.63835L22.2813 6.30399C22.5038 6.15561 22.6375 5.90583 22.6375 5.63835C22.6375 5.37086 22.5038 5.12108 22.2813 4.97271L21.8375 5.63835ZM18.2813 2.30604C17.9136 2.06096 17.417 2.1603 17.1719 2.52792C16.9268 2.89554 17.0261 3.39224 17.3938 3.63732L18.2813 2.30604ZM17.3938 7.63937C17.0261 7.88445 16.9268 8.38115 17.1719 8.74877C17.417 9.1164 17.9136 9.21574 18.2813 8.97065L17.3938 7.63937ZM26.428 10.5701C26.2067 10.1877 25.7174 10.057 25.3349 10.2782C24.9525 10.4995 24.8218 10.9888 25.043 11.3713L26.428 10.5701ZM11.1625 26.9707L10.7187 26.3051C10.4962 26.4534 10.3625 26.7032 10.3625 26.9707C10.3625 27.2382 10.4962 27.488 10.7187 27.6363L11.1625 26.9707ZM14.7187 30.303C15.0864 30.5481 15.5831 30.4488 15.8281 30.0811C16.0732 29.7135 15.9739 29.2168 15.6063 28.9717L14.7187 30.303ZM15.6063 24.9697C15.9739 24.7246 16.0732 24.2279 15.8281 23.8603C15.5831 23.4927 15.0864 23.3933 14.7187 23.6384L15.6063 24.9697ZM11.8719 21.3009L11.8717 22.1009H11.8719V21.3009ZM21.1281 21.3009V22.1009H21.1283L21.1281 21.3009ZM21.8931 20.062L22.5921 19.6729L22.5921 19.6729L21.8931 20.062ZM17.2652 11.7492L17.9642 11.3601L17.9641 11.3599L17.2652 11.7492ZM15.7348 11.7492L15.0359 11.3599L15.0358 11.3601L15.7348 11.7492ZM11.1069 20.062L10.4079 19.6729L10.4079 19.6729L11.1069 20.062ZM11.0033 20.4791L10.2035 20.4975L11.0033 20.4791ZM17.4596 14.9909C17.4596 14.5491 17.1014 14.1909 16.6596 14.1909C16.2177 14.1909 15.8596 14.5491 15.8596 14.9909H17.4596ZM15.8596 16.8231C15.8596 17.2649 16.2177 17.6231 16.6596 17.6231C17.1014 17.6231 17.4596 17.2649 17.4596 16.8231H15.8596ZM17.4596 18.7806C17.4596 18.3388 17.1014 17.9806 16.6596 17.9806C16.2177 17.9806 15.8596 18.3388 15.8596 18.7806H17.4596ZM15.8596 18.8392C15.8596 19.281 16.2177 19.6392 16.6596 19.6392C17.1014 19.6392 17.4596 19.281 17.4596 18.8392H15.8596ZM6.63751 16.305C6.63751 10.8558 11.055 6.43835 16.5042 6.43835V4.83835C10.1713 4.83835 5.03751 9.97215 5.03751 16.305H6.63751ZM7.957 21.2378C7.11797 19.7873 6.63751 18.1035 6.63751 16.305H5.03751C5.03751 18.3923 5.59592 20.3515 6.57204 22.0389L7.957 21.2378ZM16.5042 6.43835H21.8375V4.83835H16.5042V6.43835ZM17.3938 3.63732L21.3938 6.30399L22.2813 4.97271L18.2813 2.30604L17.3938 3.63732ZM21.3938 4.97271L17.3938 7.63937L18.2813 8.97065L22.2813 6.30399L21.3938 4.97271ZM26.3625 16.304C26.3625 21.7532 21.945 26.1707 16.4958 26.1707V27.7707C22.8287 27.7707 27.9625 22.6369 27.9625 16.304H26.3625ZM25.043 11.3713C25.882 12.8217 26.3625 14.5056 26.3625 16.304H27.9625C27.9625 14.2168 27.4041 12.2575 26.428 10.5701L25.043 11.3713ZM16.4958 26.1707H11.1625V27.7707H16.4958V26.1707ZM15.6063 28.9717L11.6063 26.3051L10.7187 27.6363L14.7187 30.303L15.6063 28.9717ZM11.6063 27.6363L15.6063 24.9697L14.7187 23.6384L10.7187 26.3051L11.6063 27.6363ZM11.8719 22.1009H21.1281V20.5009H11.8719V22.1009ZM21.1283 22.1009C21.412 22.1009 21.6923 22.0297 21.942 21.8926L21.1719 20.4901C21.1601 20.4966 21.1449 20.5009 21.128 20.5009L21.1283 22.1009ZM21.942 21.8926C22.1918 21.7555 22.4038 21.5562 22.5547 21.3117L21.1933 20.4711C21.1901 20.4763 21.1836 20.4837 21.1719 20.4901L21.942 21.8926ZM22.5547 21.3117C22.7058 21.067 22.7899 20.7864 22.7965 20.4975L21.1969 20.4607C21.1969 20.4626 21.1964 20.4661 21.1933 20.4711L22.5547 21.3117ZM22.7965 20.4975C22.8032 20.2086 22.7321 19.9244 22.5921 19.6729L21.1941 20.4511C21.1967 20.4557 21.197 20.4589 21.1969 20.4607L22.7965 20.4975ZM22.5921 19.6729L17.9642 11.3601L16.5663 12.1383L21.1941 20.4511L22.5921 19.6729ZM17.9641 11.3599C17.3308 10.2229 15.6692 10.2229 15.0359 11.3599L16.4336 12.1385C16.4404 12.1264 16.4464 12.1216 16.4534 12.1177C16.4629 12.1125 16.4791 12.1072 16.5 12.1072C16.5209 12.1072 16.5371 12.1125 16.5466 12.1177C16.5536 12.1216 16.5596 12.1264 16.5664 12.1385L17.9641 11.3599ZM15.0358 11.3601L10.4079 19.6729L11.8059 20.4511L16.4337 12.1383L15.0358 11.3601ZM10.4079 19.6729C10.2679 19.9244 10.1968 20.2086 10.2035 20.4975L11.8031 20.4607C11.803 20.4589 11.8033 20.4557 11.8059 20.4511L10.4079 19.6729ZM10.2035 20.4975C10.2101 20.7864 10.2942 21.067 10.4453 21.3117L11.8067 20.4711C11.8036 20.4661 11.8031 20.4626 11.8031 20.4607L10.2035 20.4975ZM10.4453 21.3117C10.5962 21.5562 10.8082 21.7555 11.058 21.8926L11.8281 20.4901C11.8164 20.4837 11.8099 20.4763 11.8067 20.4711L10.4453 21.3117ZM11.058 21.8926C11.3077 22.0297 11.588 22.1009 11.8717 22.1009L11.872 20.5009C11.8551 20.5009 11.8399 20.4966 11.8281 20.4901L11.058 21.8926ZM15.8596 14.9909V16.8231H17.4596V14.9909H15.8596ZM15.8596 18.7806V18.8392H17.4596V18.7806H15.8596Z" fill="#0049F8"/>
</svg>
