<svg width="33" height="33" viewBox="0 0 33 33" fill="none" xmlns="http://www.w3.org/2000/svg">
    <path d="M6.1478 22.423C6.39669 22.8532 6.94725 23.0003 7.3775 22.7514C7.80776 22.5025 7.95478 21.9519 7.70589 21.5217L6.1478 22.423ZM21.4998 5.97233L21.9991 6.72118C22.2494 6.55426 22.3998 6.27325 22.3998 5.97233C22.3998 5.67141 22.2494 5.3904 21.9991 5.22349L21.4998 5.97233ZM17.9991 2.55682C17.5855 2.2811 17.0267 2.39286 16.751 2.80643C16.4753 3.22001 16.587 3.77879 17.0006 4.05451L17.9991 2.55682ZM17.0006 7.89015C16.587 8.16587 16.4753 8.72465 16.751 9.13823C17.0267 9.5518 17.5855 9.66356 17.9991 9.38784L17.0006 7.89015ZM26.8332 16.639H25.9332H26.8332ZM16.1665 27.3057V28.2057V27.3057ZM26.1852 10.855C25.9363 10.4248 25.3858 10.2777 24.9555 10.5266C24.5253 10.7755 24.3782 11.3261 24.6271 11.7563L26.1852 10.855ZM10.8332 27.3057L10.3339 26.5568C10.0836 26.7237 9.93317 27.0047 9.93317 27.3057C9.93317 27.6066 10.0836 27.8876 10.3339 28.0545L10.8332 27.3057ZM14.3339 30.7212C14.7475 30.9969 15.3063 30.8851 15.582 30.4716C15.8577 30.058 15.746 29.4992 15.3324 29.2235L14.3339 30.7212ZM15.3324 25.3878C15.746 25.1121 15.8577 24.5533 15.582 24.1398C15.3063 23.7262 14.7475 23.6144 14.3339 23.8902L15.3324 25.3878ZM18.8332 14.8723C19.3302 14.8723 19.7332 14.4694 19.7332 13.9723C19.7332 13.4753 19.3302 13.0723 18.8332 13.0723V14.8723ZM13.4998 18.4057C13.0028 18.4057 12.5998 18.8086 12.5998 19.3057C12.5998 19.8027 13.0028 20.2057 13.4998 20.2057V18.4057ZM15.2665 13.9723C15.2665 14.4694 15.6694 14.8723 16.1665 14.8723C16.6636 14.8723 17.0665 14.4694 17.0665 13.9723H15.2665ZM17.0665 11.9723C17.0665 11.4753 16.6636 11.0723 16.1665 11.0723C15.6694 11.0723 15.2665 11.4753 15.2665 11.9723H17.0665ZM15.2665 21.3057C15.2665 21.8027 15.6694 22.2057 16.1665 22.2057C16.6636 22.2057 17.0665 21.8027 17.0665 21.3057H15.2665ZM17.0665 19.3057C17.0665 18.8086 16.6636 18.4057 16.1665 18.4057C15.6694 18.4057 15.2665 18.8086 15.2665 19.3057H17.0665ZM6.39984 16.639C6.39984 11.245 10.7725 6.87233 16.1665 6.87233V5.07233C9.77841 5.07233 4.59984 10.2509 4.59984 16.639H6.39984ZM7.70589 21.5217C6.87543 20.086 6.39984 18.4194 6.39984 16.639H4.59984C4.59984 18.7443 5.16312 20.7208 6.1478 22.423L7.70589 21.5217ZM16.1665 6.87233H21.4998V5.07233H16.1665V6.87233ZM17.0006 4.05451L21.0006 6.72118L21.9991 5.22349L17.9991 2.55682L17.0006 4.05451ZM21.0006 5.22349L17.0006 7.89015L17.9991 9.38784L21.9991 6.72118L21.0006 5.22349ZM25.9332 16.639C25.9332 22.033 21.5605 26.4057 16.1665 26.4057V28.2057C22.5546 28.2057 27.7332 23.0271 27.7332 16.639L25.9332 16.639ZM24.6271 11.7563C25.4576 13.1919 25.9332 14.8586 25.9332 16.639L27.7332 16.639C27.7332 14.5337 27.1699 12.5572 26.1852 10.855L24.6271 11.7563ZM16.1665 26.4057L10.8332 26.4057L10.8332 28.2057L16.1665 28.2057V26.4057ZM15.3324 29.2235L11.3324 26.5568L10.3339 28.0545L14.3339 30.7212L15.3324 29.2235ZM11.3324 28.0545L15.3324 25.3878L14.3339 23.8902L10.3339 26.5568L11.3324 28.0545ZM18.8332 13.0723H14.8332V14.8723H18.8332V13.0723ZM14.8332 17.539H17.4998V15.739H14.8332V17.539ZM17.4998 18.4057H13.4998V20.2057H17.4998V18.4057ZM17.9332 17.9723C17.9332 18.2117 17.7392 18.4057 17.4998 18.4057V20.2057C18.7333 20.2057 19.7332 19.2058 19.7332 17.9723H17.9332ZM17.4998 17.539C17.7392 17.539 17.9332 17.733 17.9332 17.9723H19.7332C19.7332 16.7389 18.7333 15.739 17.4998 15.739V17.539ZM12.5998 15.3057C12.5998 16.5391 13.5997 17.539 14.8332 17.539V15.739C14.5938 15.739 14.3998 15.545 14.3998 15.3057H12.5998ZM14.8332 13.0723C13.5997 13.0723 12.5998 14.0722 12.5998 15.3057H14.3998C14.3998 15.0663 14.5938 14.8723 14.8332 14.8723V13.0723ZM17.0665 13.9723V11.9723H15.2665V13.9723H17.0665ZM17.0665 21.3057V19.3057H15.2665V21.3057H17.0665Z" fill="#0049F8"/>
</svg>
