<svg width="33" height="33" viewBox="0 0 33 33" fill="none" xmlns="http://www.w3.org/2000/svg">
    <path d="M5.25009 22.2333C5.47132 22.6157 5.96071 22.7464 6.34315 22.5252C6.7256 22.3039 6.85629 21.8146 6.63506 21.4321L5.25009 22.2333ZM20.5156 5.83268L20.9593 6.49832C21.1819 6.34995 21.3156 6.10016 21.3156 5.83268C21.3156 5.5652 21.1819 5.31541 20.9593 5.16704L20.5156 5.83268ZM16.9593 2.50038C16.5917 2.25529 16.095 2.35463 15.8499 2.72226C15.6048 3.08988 15.7042 3.58657 16.0718 3.83166L16.9593 2.50038ZM16.0718 7.83371C15.7042 8.07879 15.6048 8.57549 15.8499 8.94311C16.095 9.31073 16.5917 9.41007 16.9593 9.16499L16.0718 7.83371ZM15.1822 27.166V27.966V27.166ZM9.8489 27.166L9.40514 26.5004C9.18258 26.6487 9.0489 26.8985 9.0489 27.166C9.0489 27.4335 9.18258 27.6833 9.40514 27.8317L9.8489 27.166ZM13.4051 30.4983C13.7728 30.7434 14.2695 30.6441 14.5145 30.2764C14.7596 29.9088 14.6603 29.4121 14.2927 29.167L13.4051 30.4983ZM14.2927 25.165C14.6603 24.9199 14.7596 24.4232 14.5145 24.0556C14.2695 23.688 13.7728 23.5886 13.4051 23.8337L14.2927 25.165ZM17.8489 14.6327C18.2907 14.6327 18.6489 14.2745 18.6489 13.8327C18.6489 13.3909 18.2907 13.0327 17.8489 13.0327V14.6327ZM12.5156 18.366C12.0737 18.366 11.7156 18.7242 11.7156 19.166C11.7156 19.6078 12.0737 19.966 12.5156 19.966V18.366ZM15.9822 11.8327C15.9822 11.3909 15.6241 11.0327 15.1822 11.0327C14.7404 11.0327 14.3822 11.3909 14.3822 11.8327H15.9822ZM14.3822 21.166C14.3822 21.6078 14.7404 21.966 15.1822 21.966C15.6241 21.966 15.9822 21.6078 15.9822 21.166H14.3822ZM25.1144 10.7654C24.8931 10.383 24.4038 10.2523 24.0213 10.4735C23.6389 10.6948 23.5082 11.1841 23.7294 11.5666L25.1144 10.7654ZM24.9725 15.265C25.0272 15.7034 25.4269 16.0145 25.8654 15.9599C26.3038 15.9052 26.6149 15.5055 26.5602 15.067L24.9725 15.265ZM19.9083 26.9497C20.3107 26.7674 20.4892 26.2933 20.307 25.8909C20.1247 25.4884 19.6506 25.3099 19.2482 25.4922L19.9083 26.9497ZM23.5501 20.8173C23.2377 20.5048 22.7312 20.5048 22.4188 20.8173C22.1064 21.1297 22.1064 21.6362 22.4188 21.9486L23.5501 20.8173ZM23.9845 22.3829L23.4188 22.9486C23.7312 23.261 24.2377 23.261 24.5502 22.9486L23.9845 22.3829ZM26.5501 20.9486C26.8626 20.6362 26.8626 20.1297 26.5501 19.8173C26.2377 19.5048 25.7312 19.5048 25.4188 19.8173L26.5501 20.9486ZM5.31556 16.4993C5.31556 11.0501 9.73302 6.63268 15.1822 6.63268V5.03268C8.84937 5.03268 3.71556 10.1665 3.71556 16.4993H5.31556ZM6.63506 21.4321C5.79602 19.9817 5.31556 18.2978 5.31556 16.4993H3.71556C3.71556 18.5866 4.27398 20.5459 5.25009 22.2333L6.63506 21.4321ZM15.1822 6.63268H20.5156V5.03268H15.1822V6.63268ZM16.0718 3.83166L20.0718 6.49832L20.9593 5.16704L16.9593 2.50038L16.0718 3.83166ZM20.0718 5.16704L16.0718 7.83371L16.9593 9.16499L20.9593 6.49832L20.0718 5.16704ZM15.1822 26.366L9.8489 26.366L9.8489 27.966L15.1822 27.966V26.366ZM14.2927 29.167L10.2927 26.5004L9.40514 27.8317L13.4051 30.4983L14.2927 29.167ZM10.2927 27.8317L14.2927 25.165L13.4051 23.8337L9.40514 26.5004L10.2927 27.8317ZM17.8489 13.0327H15.1822V14.6327H17.8489V13.0327ZM15.1822 13.0327H13.8489V14.6327H15.1822V13.0327ZM13.8489 17.2993H16.5156V15.6993H13.8489V17.2993ZM16.5156 18.366H15.1822V19.966H16.5156V18.366ZM15.1822 18.366H12.5156V19.966H15.1822V18.366ZM17.0489 17.8327C17.0489 18.1272 16.8101 18.366 16.5156 18.366V19.966C17.6938 19.966 18.6489 19.0109 18.6489 17.8327H17.0489ZM16.5156 17.2993C16.8101 17.2993 17.0489 17.5381 17.0489 17.8327H18.6489C18.6489 16.6545 17.6938 15.6993 16.5156 15.6993V17.2993ZM11.7156 15.166C11.7156 16.3442 12.6707 17.2993 13.8489 17.2993V15.6993C13.5543 15.6993 13.3156 15.4606 13.3156 15.166H11.7156ZM13.8489 13.0327C12.6707 13.0327 11.7156 13.9878 11.7156 15.166H13.3156C13.3156 14.8715 13.5543 14.6327 13.8489 14.6327V13.0327ZM15.9822 13.8327V11.8327H14.3822V13.8327H15.9822ZM15.9822 21.166V19.166H14.3822V21.166H15.9822ZM23.7294 11.5666C24.3736 12.6802 24.8062 13.9311 24.9725 15.265L26.5602 15.067C26.3668 13.5158 25.8634 12.0604 25.1144 10.7654L23.7294 11.5666ZM19.2482 25.4922C18.0094 26.0532 16.6334 26.366 15.1822 26.366V27.966C16.8655 27.966 18.4662 27.6028 19.9083 26.9497L19.2482 25.4922ZM27.6845 21.3832C27.6845 23.1505 26.2518 24.5832 24.4845 24.5832V26.1832C27.1354 26.1832 29.2845 24.0342 29.2845 21.3832H27.6845ZM24.4845 24.5832C22.7172 24.5832 21.2845 23.1505 21.2845 21.3832H19.6845C19.6845 24.0342 21.8335 26.1832 24.4845 26.1832V24.5832ZM21.2845 21.3832C21.2845 19.6159 22.7172 18.1832 24.4845 18.1832V16.5832C21.8335 16.5832 19.6845 18.7322 19.6845 21.3832H21.2845ZM24.4845 18.1832C26.2518 18.1832 27.6845 19.6159 27.6845 21.3832H29.2845C29.2845 18.7322 27.1355 16.5832 24.4845 16.5832V18.1832ZM22.4188 21.9486L23.4188 22.9486L24.5502 21.8173L23.5501 20.8173L22.4188 21.9486ZM24.5502 22.9486L26.5501 20.9486L25.4188 19.8173L23.4188 21.8173L24.5502 22.9486Z" fill="#0049F8"/>
</svg>
