<svg width="144" height="32" viewBox="0 0 144 32" fill="none" xmlns="http://www.w3.org/2000/svg">
<path fill-rule="evenodd" clip-rule="evenodd" d="M105.713 25.3461H113.232V26.8967H104.068V10.4492H105.713V25.3461Z" fill="black"/>
<path fill-rule="evenodd" clip-rule="evenodd" d="M129.914 10.4492V26.8974H128.269V12.9399L122.513 22.5739H122.278L116.521 12.9399V26.8974H114.876V10.4492H116.894L122.395 19.656L127.897 10.4492H129.914Z" fill="black"/>
<path fill-rule="evenodd" clip-rule="evenodd" d="M137.903 27.18C136.4 27.18 135.111 26.8236 134.038 26.1108C132.965 25.3979 132.217 24.4153 131.794 23.162L133.204 22.3393C133.501 23.3584 134.05 24.1529 134.848 24.7243C135.648 25.2963 136.673 25.582 137.926 25.582C139.148 25.582 140.1 25.3121 140.781 24.7717C141.464 24.2312 141.804 23.5143 141.804 22.6216C141.804 21.7604 141.49 21.1101 140.864 20.6713C140.237 20.2332 139.204 19.7786 137.762 19.3088C136.055 18.7444 134.927 18.2904 134.379 17.9457C133.125 17.1938 132.499 16.1053 132.499 14.6797C132.499 13.2857 132.984 12.1855 133.956 11.378C134.927 10.5718 136.125 10.168 137.551 10.168C138.835 10.168 139.948 10.501 140.887 11.1665C141.828 11.8326 142.524 12.682 142.978 13.7162L141.592 14.4915C140.84 12.6745 139.493 11.766 137.551 11.766C136.532 11.766 135.71 12.0166 135.084 12.5179C134.456 13.0192 134.143 13.7162 134.143 14.609C134.143 15.4234 134.426 16.0346 134.99 16.4418C135.554 16.8497 136.486 17.2645 137.786 17.6868C138.381 17.8908 138.807 18.0364 139.066 18.1222C139.324 18.208 139.701 18.3495 140.195 18.5445C140.688 18.7409 141.052 18.9126 141.287 19.0616C141.522 19.2106 141.808 19.4139 142.145 19.6728C142.481 19.931 142.724 20.1892 142.873 20.4481C143.022 20.7063 143.154 21.0201 143.272 21.3875C143.39 21.7563 143.448 22.1518 143.448 22.5742C143.448 23.9689 142.939 25.0848 141.922 25.9226C140.903 26.7611 139.563 27.18 137.903 27.18Z" fill="black"/>
<path fill-rule="evenodd" clip-rule="evenodd" d="M88.3833 26.9128V10.7997H91.4989V12.4093H91.5504C92.9527 10.4103 95.2374 10.3588 96.0683 10.332V13.7601C95.2374 13.8116 94.4065 14.0197 93.6538 14.4091C92.5894 14.9804 91.707 16.3298 91.707 18.8748V26.9389L88.3833 26.9128Z" fill="black"/>
<path fill-rule="evenodd" clip-rule="evenodd" d="M83.5365 18.8658C83.5365 21.6065 81.3246 23.8362 78.6052 23.8362C75.8865 23.8362 73.6746 21.6065 73.6746 18.8658C73.6746 16.1251 75.8865 13.8953 78.6052 13.8953C81.3246 13.8953 83.5365 16.1251 83.5365 18.8658ZM84.3897 13.1669C83.6419 12.4211 82.7698 11.8347 81.7974 11.4247C80.7858 10.9976 79.7125 10.7812 78.6055 10.7812C77.4992 10.7812 76.4259 10.9976 75.4144 11.4247C74.442 11.8347 73.5698 12.4211 72.822 13.1669C71.2941 14.6914 70.4521 16.7152 70.4521 18.8653C70.4521 21.0154 71.2941 23.0391 72.822 24.5636C73.5692 25.3094 74.442 25.8959 75.4144 26.3065C76.4259 26.733 77.4992 26.9493 78.6055 26.9493C79.7125 26.9493 80.7858 26.733 81.7974 26.3065C82.7698 25.8959 83.6419 25.3094 84.3897 24.5636C85.9184 23.0391 86.7596 21.0154 86.7596 18.8653C86.7596 16.7152 85.9184 14.6914 84.3897 13.1669Z" fill="black"/>
<path fill-rule="evenodd" clip-rule="evenodd" d="M66.7826 26.8992H63.4589V13.8138H61.0444V10.7758H63.4589V3.875H66.7826V10.7758H69.6902V13.8138H66.7826V26.8992Z" fill="black"/>
<path fill-rule="evenodd" clip-rule="evenodd" d="M46.4004 10.7754V18.3306C46.4004 22.7187 48.3479 23.8869 50.8146 23.8869C53.5669 23.8869 55.4616 22.1213 55.4616 18.2269V10.7754H58.7853V26.8988H55.7473V24.5358H55.6697C54.7611 26.0679 52.6838 26.8988 50.4506 26.8988C48.4255 26.8988 46.6606 26.2498 45.3882 25.1332C43.9083 23.8608 43.0513 21.8617 43.0513 18.3045V10.7754H46.4004Z" fill="black"/>
<path fill-rule="evenodd" clip-rule="evenodd" d="M37.8847 26.9438H34.561V13.8022H32.1465V10.7648H34.561V3.875H37.8847V10.7648H40.7922V13.8022H37.8847V26.9438Z" fill="black"/>
<path fill-rule="evenodd" clip-rule="evenodd" d="M6.73762 19.8436C5.94796 19.7925 5.35534 19.1999 5.3042 18.4102V15.1463C5.3042 14.3566 5.94796 13.7129 6.73762 13.7129C7.52727 13.7129 8.17103 14.3566 8.17103 15.1463V18.4087C8.17103 19.1984 7.57841 19.8421 6.83538 19.8421C6.78876 19.8436 6.73762 19.8436 6.73762 19.8436Z" fill="#0049F8"/>
<path fill-rule="evenodd" clip-rule="evenodd" d="M17.0184 19.8436C16.2287 19.8436 15.585 19.251 15.585 18.4614C15.585 18.4614 15.585 18.4614 15.585 18.4102V15.1463C15.585 14.3566 16.2287 13.7129 17.0184 13.7129C17.808 13.7129 18.4518 14.3566 18.4518 15.1463V18.4087C18.4503 19.1999 17.8065 19.8436 17.0184 19.8436Z" fill="#0049F8"/>
<path fill-rule="evenodd" clip-rule="evenodd" d="M3.39439 12.6945C4.03407 11.3599 5.31504 10.5076 6.80708 10.4524C8.93879 10.5076 10.6468 12.3178 10.5964 14.4528V21.658C10.702 22.4584 11.4488 22.9926 12.2492 22.8822C12.8889 22.7767 13.423 22.2977 13.4733 21.658V14.4576C13.4181 12.3259 15.1261 10.5124 17.2627 10.4572C18.7044 10.4572 19.9837 11.2576 20.5682 12.5386C22.9678 17.2858 21.1024 23.0462 16.3551 25.449C11.6079 27.8519 5.84756 25.9783 3.44959 21.231C2.11504 18.5636 2.06471 15.3636 3.39439 12.6945ZM9.4226 3.2H14.8095V5.28138C13.902 5.0687 12.996 4.95992 12.0381 4.95992C11.1306 4.95992 10.2246 5.06545 9.37227 5.22618L9.4226 3.2ZM24.0913 17.9742C24.0913 17.6528 24.1465 17.3898 24.1465 17.0115C24.1465 12.6376 21.7989 8.63724 17.9592 6.50391V3.2H20.3068C21.2144 3.2 21.9093 2.50512 21.9093 1.59756C21.9093 0.690005 21.2144 0 20.3068 0H3.92854C3.02098 0.0552004 2.33097 0.745206 2.33097 1.65277C2.33097 2.56032 3.02585 3.2552 3.93341 3.2552H6.28105V6.5104C0.462277 9.70553 -1.72463 17.0163 1.47537 22.8286C1.6361 23.0949 1.74163 23.3076 1.90398 23.5738C6.43853 31.2028 18.5989 31.948 22.7064 32C23.0798 32 23.4013 31.8393 23.7195 31.6266C23.9858 31.3603 24.0929 30.9869 24.0929 30.6135C24.0913 30.6184 24.0913 17.9742 24.0913 17.9742Z" fill="#0049F8"/>
</svg>
