<svg width="427" height="220" viewBox="0 0 427 220" fill="none" xmlns="http://www.w3.org/2000/svg">
<path d="M190.58 36.5537L144.476 42.9651C138.69 43.7696 134.648 49.1127 135.447 54.8991L147.918 145.202C148.717 150.988 154.055 155.027 159.841 154.222L205.945 147.811C211.731 147.006 215.773 141.663 214.974 135.877L202.502 45.5741C201.703 39.7877 196.365 35.7491 190.58 36.5537Z" fill="#B6BFFF"/>
<path d="M281.672 42.8716L235.569 36.4606C229.783 35.6561 224.445 39.6947 223.646 45.4811L211.175 135.784C210.376 141.57 214.419 146.913 220.204 147.718L266.308 154.129C272.094 154.933 277.432 150.895 278.231 145.108L290.701 54.8055C291.501 49.0191 287.458 43.6761 281.672 42.8716Z" fill="#B6BFFF"/>
<path d="M252.019 21H174.13C168.3 21 163.574 25.3061 163.574 30.6179V148.382C163.574 153.694 168.3 158 174.13 158H252.019C257.848 158 262.574 153.694 262.574 148.382V30.6179C262.574 25.3061 257.848 21 252.019 21Z" fill="white"/>
<path d="M262.679 88.1406V90.831" stroke="black" stroke-width="1.51088" stroke-linecap="round"/>
<path d="M263 98.6584V148.172C263 153.6 258.274 158 252.445 158H174.555C168.726 158 164 153.6 164 148.172V27.8279C164 22.4002 168.726 18 174.555 18H252.445C258.274 18 263 22.4002 263 27.8279V90.4998" stroke="black" stroke-width="1.51088" stroke-linecap="round"/>
<path d="M250.902 131.047H174.588C173.266 131.047 172.194 132.119 172.194 133.44C172.194 134.762 173.266 135.834 174.588 135.834H250.902C252.224 135.834 253.296 134.762 253.296 133.44C253.296 132.119 252.224 131.047 250.902 131.047Z" fill="#7E97FF"/>
<path d="M250.902 131.047H174.588C173.266 131.047 172.194 132.119 172.194 133.44C172.194 134.762 173.266 135.834 174.588 135.834H250.902C252.224 135.834 253.296 134.762 253.296 133.44C253.296 132.119 252.224 131.047 250.902 131.047Z" fill="#B6BFFF"/>
<path d="M250.902 117.672H174.588C173.266 117.672 172.194 118.744 172.194 120.065C172.194 121.387 173.266 122.459 174.588 122.459H250.902C252.224 122.459 253.296 121.387 253.296 120.065C253.296 118.744 252.224 117.672 250.902 117.672Z" fill="#7E97FF"/>
<path d="M250.902 117.672H174.588C173.266 117.672 172.194 118.744 172.194 120.065C172.194 121.387 173.266 122.459 174.588 122.459H250.902C252.224 122.459 253.296 121.387 253.296 120.065C253.296 118.744 252.224 117.672 250.902 117.672Z" fill="#B6BFFF"/>
<path d="M186.122 84.9523L178.337 49.1679C178.268 48.7436 178.337 48.3086 178.533 47.9266C178.732 47.5398 179.05 47.2295 179.441 47.0418C179.831 46.8542 180.271 46.7985 180.695 46.8843C181.118 46.9701 181.503 47.192 181.79 47.517L181.796 47.5237L181.802 47.5298L196.215 63.1039L196.993 63.9437L197.457 62.8981L211.435 31.4556C211.595 31.1105 211.85 30.8196 212.169 30.6151C212.488 30.41 212.86 30.3008 213.24 30.3008C213.619 30.3008 213.991 30.41 214.311 30.6151C214.63 30.8196 214.884 31.1111 215.045 31.4556C215.045 31.457 215.046 31.4583 215.047 31.4597L229.022 62.8981L229.487 63.9437L230.265 63.1039L244.677 47.5298L244.683 47.5237L244.689 47.517C244.976 47.192 245.361 46.9701 245.785 46.8843C246.209 46.7985 246.649 46.8542 247.039 47.0418C247.429 47.2295 247.748 47.5398 247.946 47.9266C248.143 48.3086 248.212 48.7436 248.143 49.1679L240.357 84.9523L240.354 84.967L240.352 84.9824C240.27 85.4456 240.028 85.8652 239.669 86.1675C239.311 86.4691 238.858 86.6346 238.39 86.6346H188.09C187.622 86.6346 187.169 86.4691 186.811 86.1675C186.451 85.8652 186.21 85.4456 186.128 84.9824L186.126 84.967L186.122 84.9523Z" stroke="black" stroke-width="1.50808"/>
<path d="M194.313 79.9922H192.973" stroke="black" stroke-width="1.50808" stroke-linecap="round"/>
<path d="M209.059 79.9922H196.994" stroke="black" stroke-width="1.50808" stroke-linecap="round"/>
<path d="M279.436 28.2794C279.436 30.1401 277.933 31.6448 276.085 31.6448C274.236 31.6448 272.733 30.1401 272.733 28.2794C272.733 26.4188 274.236 24.9141 276.085 24.9141C277.933 24.9141 279.436 26.4188 279.436 28.2794Z" stroke="black" stroke-width="1.34052"/>
<path d="M165.492 172.213C165.492 174.074 163.989 175.578 162.14 175.578C160.292 175.578 158.789 174.074 158.789 172.213C158.789 170.352 160.292 168.848 162.14 168.848C163.989 168.848 165.492 170.352 165.492 172.213Z" stroke="black" stroke-width="1.34052"/>
<path d="M230.541 195.777C236.616 195.777 241.541 190.852 241.541 184.777C241.541 178.702 236.616 173.777 230.541 173.777C224.466 173.777 219.541 178.702 219.541 184.777C219.541 190.852 224.466 195.777 230.541 195.777Z" fill="#7E97FF"/>
<rect x="181.75" y="169.75" width="63.5" height="30.5" rx="15.25" stroke="black" stroke-width="1.5"/>
</svg>
